<?plantuml 1.2026.2?><svg xmlns="http://www.w3.org/2000/svg" xmlns:xlink="http://www.w3.org/1999/xlink" contentStyleType="text/css" data-diagram-type="CLASS" height="1153px" preserveAspectRatio="none" style="width:1573px;height:1153px;background:#FFFFFF;" version="1.1" viewBox="0 0 1573 1153" width="1573px" zoomAndPan="magnify"><title>Corpus / dict / LM / features &#8212; domain model</title><defs/><g><g class="title" data-source-line="1"><text fill="#000000" font-family="Menlo" font-size="14" font-weight="bold" lengthAdjust="spacing" textLength="370.8633" x="594.286" y="22.9951">Corpus / dict / LM / features &#8212; domain model</text></g><!--class Corpus--><g class="entity" data-qualified-name="Corpus" data-source-line="10" id="ent0002"><rect fill="#FAFAFA" height="259.8594" rx="2.5" ry="2.5" style="stroke:#000000;stroke-width:0.5;" width="205.8604" x="610.72" y="267.0769"/><ellipse cx="684.114" cy="283.0769" fill="#ADD1B2" rx="11" ry="11" style="stroke:#181818;stroke-width:1;"/><path d="M686.5872,289.2199 Q686.0061,289.5188 685.367,289.6682 Q684.7278,289.8176 684.0222,289.8176 Q681.5154,289.8176 680.1956,288.1657 Q678.8758,286.5139 678.8758,283.3928 Q678.8758,280.2634 680.1956,278.6115 Q681.5154,276.9597 684.0222,276.9597 Q684.7278,276.9597 685.3753,277.1091 Q686.0227,277.2585 686.5872,277.5573 L686.5872,280.28 Q685.9563,279.6989 685.3628,279.4292 Q684.7693,279.1594 684.1385,279.1594 Q682.7937,279.1594 682.1089,280.226 Q681.4241,281.2927 681.4241,283.3928 Q681.4241,285.4846 682.1089,286.5512 Q682.7937,287.6179 684.1385,287.6179 Q684.7693,287.6179 685.3628,287.3481 Q685.9563,287.0783 686.5872,286.4973 Z " fill="#000000"/><text fill="#000000" font-family="Menlo" font-size="14" lengthAdjust="spacing" textLength="50.5723" x="704.614" y="287.9236">Corpus</text><line style="stroke:#000000;stroke-width:0.5;" x1="611.72" x2="815.5804" y1="299.0769" y2="299.0769"/><text fill="#000000" font-family="Menlo" font-size="14" lengthAdjust="spacing" textLength="75.8584" x="616.72" y="316.072">name: str</text><text fill="#000000" font-family="Menlo" font-size="14" lengthAdjust="spacing" textLength="143.2881" x="616.72" y="332.3689">audio_format: str</text><text fill="#000000" font-family="Menlo" font-size="14" lengthAdjust="spacing" textLength="126.4307" x="616.72" y="348.6657">audio_type: str</text><text fill="#000000" font-family="Menlo" font-size="14" lengthAdjust="spacing" textLength="134.8594" x="616.72" y="364.9626">sample_rate: int</text><text fill="#000000" font-family="Menlo" font-size="14" lengthAdjust="spacing" textLength="109.5732" x="616.72" y="381.2595">num_filt: int</text><text fill="#000000" font-family="Menlo" font-size="14" lengthAdjust="spacing" textLength="101.1445" x="616.72" y="397.5564">lo_filt: int</text><text fill="#000000" font-family="Menlo" font-size="14" lengthAdjust="spacing" textLength="101.1445" x="616.72" y="413.8532">hi_filt: int</text><text fill="#000000" font-family="Menlo" font-size="14" lengthAdjust="spacing" textLength="75.8584" x="616.72" y="430.1501">cmn: bool</text><line style="stroke:#000000;stroke-width:1;" x1="611.72" x2="815.5804" y1="437.4519" y2="437.4519"/><text fill="#000000" font-family="Menlo" font-size="14" lengthAdjust="spacing" textLength="193.8604" x="616.72" y="454.447">splits: Map&lt;name,Split&gt;</text><text fill="#000000" font-family="Menlo" font-size="14" lengthAdjust="spacing" textLength="134.8594" x="616.72" y="470.7439">dict: Dictionary</text><text fill="#000000" font-family="Menlo" font-size="14" lengthAdjust="spacing" textLength="143.2881" x="616.72" y="487.0407">lm: LanguageModel</text><text fill="#000000" font-family="Menlo" font-size="14" lengthAdjust="spacing" textLength="193.8604" x="616.72" y="503.3376">full_transcripts: Path?</text><text fill="#000000" font-family="Menlo" font-size="14" lengthAdjust="spacing" textLength="151.7168" x="616.72" y="519.6345">fillers: list&lt;str&gt;</text></g><!--class Split--><g class="entity" data-qualified-name="Split" data-source-line="27" id="ent0003"><rect fill="#FAFAFA" height="113.1875" rx="2.5" ry="2.5" style="stroke:#000000;stroke-width:0.5;" width="290.1475" x="57.57" y="612.3869"/><ellipse cx="177.322" cy="628.3869" fill="#ADD1B2" rx="11" ry="11" style="stroke:#181818;stroke-width:1;"/><path d="M179.7951,634.5299 Q179.214,634.8288 178.5749,634.9782 Q177.9357,635.1276 177.2302,635.1276 Q174.7233,635.1276 173.4035,633.4757 Q172.0837,631.8239 172.0837,628.7028 Q172.0837,625.5734 173.4035,623.9215 Q174.7233,622.2697 177.2302,622.2697 Q177.9357,622.2697 178.5832,622.4191 Q179.2306,622.5685 179.7951,622.8673 L179.7951,625.59 Q179.1642,625.0089 178.5707,624.7392 Q177.9772,624.4694 177.3464,624.4694 Q176.0016,624.4694 175.3168,625.536 Q174.632,626.6027 174.632,628.7028 Q174.632,630.7946 175.3168,631.8612 Q176.0016,632.9279 177.3464,632.9279 Q177.9772,632.9279 178.5707,632.6581 Q179.1642,632.3883 179.7951,631.8073 Z " fill="#000000"/><text fill="#000000" font-family="Menlo" font-size="14" lengthAdjust="spacing" textLength="42.1436" x="197.822" y="633.2336">Split</text><line style="stroke:#000000;stroke-width:0.5;" x1="58.57" x2="346.7175" y1="644.3869" y2="644.3869"/><text fill="#000000" font-family="Menlo" font-size="14" lengthAdjust="spacing" textLength="75.8584" x="63.57" y="661.382">name: str</text><text fill="#000000" font-family="Menlo" font-size="14" lengthAdjust="spacing" textLength="92.7158" x="63.57" y="677.6789">audio: Path</text><text fill="#000000" font-family="Menlo" font-size="14" lengthAdjust="spacing" textLength="101.1445" x="63.57" y="693.9757">hours: float</text><line style="stroke:#000000;stroke-width:1;" x1="58.57" x2="346.7175" y1="701.2775" y2="701.2775"/><text fill="#000000" font-family="Menlo" font-size="14" lengthAdjust="spacing" textLength="278.1475" x="63.57" y="718.2726">utterances(): Iterator&lt;Utterance&gt;</text></g><!--class Utterance--><g class="entity" data-qualified-name="Utterance" data-source-line="35" id="ent0004"><rect fill="#FAFAFA" height="129.4844" rx="2.5" ry="2.5" style="stroke:#000000;stroke-width:0.5;" width="323.8623" x="40.71" y="827.0169"/><ellipse cx="160.462" cy="843.0169" fill="#ADD1B2" rx="11" ry="11" style="stroke:#181818;stroke-width:1;"/><path d="M162.9351,849.1599 Q162.354,849.4588 161.7149,849.6082 Q161.0757,849.7576 160.3702,849.7576 Q157.8633,849.7576 156.5435,848.1057 Q155.2237,846.4539 155.2237,843.3328 Q155.2237,840.2034 156.5435,838.5515 Q157.8633,836.8997 160.3702,836.8997 Q161.0757,836.8997 161.7232,837.0491 Q162.3706,837.1985 162.9351,837.4973 L162.9351,840.22 Q162.3042,839.6389 161.7107,839.3692 Q161.1172,839.0994 160.4864,839.0994 Q159.1416,839.0994 158.4568,840.166 Q157.772,841.2327 157.772,843.3328 Q157.772,845.4246 158.4568,846.4912 Q159.1416,847.5579 160.4864,847.5579 Q161.1172,847.5579 161.7107,847.2881 Q162.3042,847.0183 162.9351,846.4373 Z " fill="#000000"/><text fill="#000000" font-family="Menlo" font-size="14" lengthAdjust="spacing" textLength="75.8584" x="180.962" y="847.8636">Utterance</text><line style="stroke:#000000;stroke-width:0.5;" x1="41.71" x2="363.5723" y1="859.0169" y2="859.0169"/><text fill="#000000" font-family="Menlo" font-size="14" lengthAdjust="spacing" textLength="311.8623" x="46.71" y="876.012">fileid: Path     &#171;rel to SPHINX_ROOT&#187;</text><text fill="#000000" font-family="Menlo" font-size="14" lengthAdjust="spacing" textLength="126.4307" x="46.71" y="892.3089">transcript: str</text><text fill="#000000" font-family="Menlo" font-size="14" lengthAdjust="spacing" textLength="134.8594" x="46.71" y="908.6057">speaker_id: str?</text><text fill="#000000" font-family="Menlo" font-size="14" lengthAdjust="spacing" textLength="134.8594" x="46.71" y="924.9026">audio_path: Path</text><text fill="#000000" font-family="Menlo" font-size="14" lengthAdjust="spacing" textLength="160.1455" x="46.71" y="941.1995">features: Features?</text><line style="stroke:#000000;stroke-width:0.5;" x1="41.71" x2="363.5723" y1="948.5013" y2="948.5013"/></g><!--class Features--><g class="entity" data-qualified-name="Features" data-source-line="43" id="ent0005"><rect fill="#FAFAFA" height="129.4844" rx="2.5" ry="2.5" style="stroke:#000000;stroke-width:0.5;" width="391.292" x="7" y="1017.5069"/><ellipse cx="164.6812" cy="1033.5069" fill="#ADD1B2" rx="11" ry="11" style="stroke:#181818;stroke-width:1;"/><path d="M167.1543,1039.6499 Q166.5732,1039.9488 165.9341,1040.0982 Q165.2949,1040.2476 164.5894,1040.2476 Q162.0825,1040.2476 160.7627,1038.5957 Q159.4429,1036.9439 159.4429,1033.8228 Q159.4429,1030.6934 160.7627,1029.0415 Q162.0825,1027.3897 164.5894,1027.3897 Q165.2949,1027.3897 165.9424,1027.5391 Q166.5898,1027.6885 167.1543,1027.9873 L167.1543,1030.71 Q166.5234,1030.1289 165.9299,1029.8592 Q165.3364,1029.5894 164.7056,1029.5894 Q163.3608,1029.5894 162.676,1030.656 Q161.9912,1031.7227 161.9912,1033.8228 Q161.9912,1035.9146 162.676,1036.9812 Q163.3608,1038.0479 164.7056,1038.0479 Q165.3364,1038.0479 165.9299,1037.7781 Q166.5234,1037.5083 167.1543,1036.9273 Z " fill="#000000"/><text fill="#000000" font-family="Menlo" font-size="14" lengthAdjust="spacing" textLength="67.4297" x="185.1812" y="1038.3536">Features</text><line style="stroke:#000000;stroke-width:0.5;" x1="8" x2="397.292" y1="1049.5069" y2="1049.5069"/><text fill="#000000" font-family="Menlo" font-size="14" lengthAdjust="spacing" textLength="202.2891" x="13" y="1066.502">path: Path        &#171;.mfc&#187;</text><text fill="#000000" font-family="Menlo" font-size="14" lengthAdjust="spacing" textLength="143.2881" x="13" y="1082.7989">cmn_applied: bool</text><text fill="#000000" font-family="Menlo" font-size="14" lengthAdjust="spacing" textLength="143.2881" x="13" y="1099.0957">lda_applied: bool</text><text fill="#000000" font-family="Menlo" font-size="14" lengthAdjust="spacing" textLength="151.7168" x="13" y="1115.3926">mllt_applied: bool</text><line style="stroke:#000000;stroke-width:0.5;" x1="8" x2="397.292" y1="1122.6944" y2="1122.6944"/><text fill="#000000" font-family="Menlo" font-size="14" lengthAdjust="spacing" textLength="379.292" x="13" y="1139.6895">dim: int          &#171;= num_filt * 3 (CMN+&#916;+&#916;&#916;)&#187;</text></g><!--class Dictionary--><g class="entity" data-qualified-name="Dictionary" data-source-line="51" id="ent0006"><rect fill="#FAFAFA" height="129.4844" rx="2.5" ry="2.5" style="stroke:#000000;stroke-width:0.5;" width="273.29" x="383" y="604.2369"/><ellipse cx="473.2515" cy="620.2369" fill="#ADD1B2" rx="11" ry="11" style="stroke:#181818;stroke-width:1;"/><path d="M475.7246,626.3799 Q475.1436,626.6788 474.5044,626.8282 Q473.8652,626.9776 473.1597,626.9776 Q470.6528,626.9776 469.333,625.3257 Q468.0132,623.6739 468.0132,620.5528 Q468.0132,617.4234 469.333,615.7715 Q470.6528,614.1197 473.1597,614.1197 Q473.8652,614.1197 474.5127,614.2691 Q475.1602,614.4185 475.7246,614.7173 L475.7246,617.44 Q475.0938,616.8589 474.5002,616.5892 Q473.9067,616.3194 473.2759,616.3194 Q471.9312,616.3194 471.2463,617.386 Q470.5615,618.4527 470.5615,620.5528 Q470.5615,622.6446 471.2463,623.7112 Q471.9312,624.7779 473.2759,624.7779 Q473.9067,624.7779 474.5002,624.5081 Q475.0938,624.2383 475.7246,623.6573 Z " fill="#000000"/><text fill="#000000" font-family="Menlo" font-size="14" lengthAdjust="spacing" textLength="84.2871" x="493.7515" y="625.0836">Dictionary</text><line style="stroke:#000000;stroke-width:0.5;" x1="384" x2="655.29" y1="636.2369" y2="636.2369"/><text fill="#000000" font-family="Menlo" font-size="14" lengthAdjust="spacing" textLength="84.2871" x="389" y="653.232">path: Path</text><text fill="#000000" font-family="Menlo" font-size="14" lengthAdjust="spacing" textLength="261.29" x="389" y="669.5289">entries: Map&lt;word, list&lt;phone&gt;&gt;</text><text fill="#000000" font-family="Menlo" font-size="14" lengthAdjust="spacing" textLength="151.7168" x="389" y="685.8257">phones: set&lt;Phone&gt;</text><line style="stroke:#000000;stroke-width:1;" x1="384" x2="655.29" y1="693.1275" y2="693.1275"/><text fill="#000000" font-family="Menlo" font-size="14" lengthAdjust="spacing" textLength="210.7178" x="389" y="710.1226">lookup(word): list&lt;phone&gt;</text><text fill="#000000" font-family="Menlo" font-size="14" lengthAdjust="spacing" textLength="151.7168" x="389" y="726.4195">is_oov(word): bool</text></g><!--class Phone--><g class="entity" data-qualified-name="Phone" data-source-line="60" id="ent0007"><rect fill="#FAFAFA" height="80.5938" rx="2.5" ry="2.5" style="stroke:#000000;stroke-width:0.5;" width="349.1484" x="792.07" y="851.4669"/><ellipse cx="941.3224" cy="867.4669" fill="#ADD1B2" rx="11" ry="11" style="stroke:#181818;stroke-width:1;"/><path d="M943.7956,873.6099 Q943.2145,873.9088 942.5754,874.0582 Q941.9362,874.2076 941.2306,874.2076 Q938.7238,874.2076 937.404,872.5557 Q936.0842,870.9039 936.0842,867.7828 Q936.0842,864.6534 937.404,863.0015 Q938.7238,861.3497 941.2306,861.3497 Q941.9362,861.3497 942.5837,861.4991 Q943.2311,861.6485 943.7956,861.9473 L943.7956,864.67 Q943.1647,864.0889 942.5712,863.8192 Q941.9777,863.5494 941.3469,863.5494 Q940.0021,863.5494 939.3173,864.616 Q938.6325,865.6827 938.6325,867.7828 Q938.6325,869.8746 939.3173,870.9412 Q940.0021,872.0079 941.3469,872.0079 Q941.9777,872.0079 942.5712,871.7381 Q943.1647,871.4683 943.7956,870.8873 Z " fill="#000000"/><text fill="#000000" font-family="Menlo" font-size="14" lengthAdjust="spacing" textLength="42.1436" x="961.8224" y="872.3136">Phone</text><line style="stroke:#000000;stroke-width:0.5;" x1="793.07" x2="1140.2184" y1="883.4669" y2="883.4669"/><text fill="#000000" font-family="Menlo" font-size="14" lengthAdjust="spacing" textLength="92.7158" x="798.07" y="900.462">symbol: str</text><line style="stroke:#000000;stroke-width:1;" x1="793.07" x2="1140.2184" y1="907.7638" y2="907.7638"/><text fill="#000000" font-family="Menlo" font-size="14" lengthAdjust="spacing" textLength="337.1484" x="798.07" y="924.7589">triphones(ctx_left, ctx_right): CD_Phone</text></g><!--class CD_Phone--><g class="entity" data-qualified-name="CD_Phone" data-source-line="66" id="ent0008"><rect fill="#FAFAFA" height="113.1875" rx="2.5" ry="2.5" style="stroke:#000000;stroke-width:0.5;" width="248.0039" x="1016.64" y="1025.6469"/><ellipse cx="1102.6771" cy="1041.6469" fill="#ADD1B2" rx="11" ry="11" style="stroke:#181818;stroke-width:1;"/><path d="M1105.1503,1047.7899 Q1104.5692,1048.0888 1103.93,1048.2382 Q1103.2909,1048.3876 1102.5853,1048.3876 Q1100.0785,1048.3876 1098.7587,1046.7357 Q1097.4388,1045.0839 1097.4388,1041.9628 Q1097.4388,1038.8334 1098.7587,1037.1815 Q1100.0785,1035.5297 1102.5853,1035.5297 Q1103.2909,1035.5297 1103.9383,1035.6791 Q1104.5858,1035.8285 1105.1503,1036.1273 L1105.1503,1038.85 Q1104.5194,1038.2689 1103.9259,1037.9992 Q1103.3324,1037.7294 1102.7015,1037.7294 Q1101.3568,1037.7294 1100.672,1038.796 Q1099.9872,1039.8627 1099.9872,1041.9628 Q1099.9872,1044.0546 1100.672,1045.1212 Q1101.3568,1046.1879 1102.7015,1046.1879 Q1103.3324,1046.1879 1103.9259,1045.9181 Q1104.5194,1045.6483 1105.1503,1045.0673 Z " fill="#000000"/><text fill="#000000" font-family="Menlo" font-size="14" lengthAdjust="spacing" textLength="67.4297" x="1123.1771" y="1046.4936">CD_Phone</text><line style="stroke:#000000;stroke-width:0.5;" x1="1017.64" x2="1263.6439" y1="1057.6469" y2="1057.6469"/><text fill="#000000" font-family="Menlo" font-size="14" lengthAdjust="spacing" textLength="109.5732" x="1022.64" y="1074.642">center: Phone</text><text fill="#000000" font-family="Menlo" font-size="14" lengthAdjust="spacing" textLength="126.4307" x="1022.64" y="1090.9389">left_ctx: Phone</text><text fill="#000000" font-family="Menlo" font-size="14" lengthAdjust="spacing" textLength="134.8594" x="1022.64" y="1107.2357">right_ctx: Phone</text><line style="stroke:#000000;stroke-width:1;" x1="1017.64" x2="1263.6439" y1="1114.5375" y2="1114.5375"/><text fill="#000000" font-family="Menlo" font-size="14" lengthAdjust="spacing" textLength="236.0039" x="1022.64" y="1131.5326">senone_id: int &#171;after tying&#187;</text></g><!--class LanguageModel--><g class="entity" data-qualified-name="LanguageModel" data-source-line="74" id="ent0009"><rect fill="#FAFAFA" height="129.4844" rx="2.5" ry="2.5" style="stroke:#000000;stroke-width:0.5;" width="273.29" x="691" y="604.2369"/><ellipse cx="768.6084" cy="620.2369" fill="#ADD1B2" rx="11" ry="11" style="stroke:#181818;stroke-width:1;"/><path d="M771.0815,626.3799 Q770.5005,626.6788 769.8613,626.8282 Q769.2222,626.9776 768.5166,626.9776 Q766.0098,626.9776 764.6899,625.3257 Q763.3701,623.6739 763.3701,620.5528 Q763.3701,617.4234 764.6899,615.7715 Q766.0098,614.1197 768.5166,614.1197 Q769.2222,614.1197 769.8696,614.2691 Q770.5171,614.4185 771.0815,614.7173 L771.0815,617.44 Q770.4507,616.8589 769.8572,616.5892 Q769.2637,616.3194 768.6328,616.3194 Q767.2881,616.3194 766.6033,617.386 Q765.9185,618.4527 765.9185,620.5528 Q765.9185,622.6446 766.6033,623.7112 Q767.2881,624.7779 768.6328,624.7779 Q769.2637,624.7779 769.8572,624.5081 Q770.4507,624.2383 771.0815,623.6573 Z " fill="#000000"/><text fill="#000000" font-family="Menlo" font-size="14" lengthAdjust="spacing" textLength="109.5732" x="789.1084" y="625.0836">LanguageModel</text><line style="stroke:#000000;stroke-width:0.5;" x1="692" x2="963.29" y1="636.2369" y2="636.2369"/><text fill="#000000" font-family="Menlo" font-size="14" lengthAdjust="spacing" textLength="160.1455" x="697" y="653.232">path: Path   &#171;ARPA&#187;</text><text fill="#000000" font-family="Menlo" font-size="14" lengthAdjust="spacing" textLength="261.29" x="697" y="669.5289">order: int   &#171;e.g. 3 = trigram&#187;</text><text fill="#000000" font-family="Menlo" font-size="14" lengthAdjust="spacing" textLength="126.4307" x="697" y="685.8257">vocab: set&lt;str&gt;</text><line style="stroke:#000000;stroke-width:1;" x1="692" x2="963.29" y1="693.1275" y2="693.1275"/><text fill="#000000" font-family="Menlo" font-size="14" lengthAdjust="spacing" textLength="219.1465" x="697" y="710.1226">prob(word, history): float</text><text fill="#000000" font-family="Menlo" font-size="14" lengthAdjust="spacing" textLength="244.4326" x="697" y="726.4195">backoff(word, history): float</text></g><!--class AcousticModel--><g class="entity" data-qualified-name="AcousticModel" data-source-line="83" id="ent0010"><rect fill="#FAFAFA" height="162.0781" rx="2.5" ry="2.5" style="stroke:#000000;stroke-width:0.5;" width="425.0068" x="999.14" y="587.9369"/><ellipse cx="1152.6068" cy="603.9369" fill="#ADD1B2" rx="11" ry="11" style="stroke:#181818;stroke-width:1;"/><path d="M1155.0799,610.0799 Q1154.4989,610.3788 1153.8597,610.5282 Q1153.2206,610.6776 1152.515,610.6776 Q1150.0082,610.6776 1148.6883,609.0257 Q1147.3685,607.3739 1147.3685,604.2528 Q1147.3685,601.1234 1148.6883,599.4715 Q1150.0082,597.8197 1152.515,597.8197 Q1153.2206,597.8197 1153.868,597.9691 Q1154.5155,598.1185 1155.0799,598.4173 L1155.0799,601.14 Q1154.4491,600.5589 1153.8556,600.2892 Q1153.2621,600.0194 1152.6312,600.0194 Q1151.2865,600.0194 1150.6017,601.086 Q1149.9169,602.1527 1149.9169,604.2528 Q1149.9169,606.3446 1150.6017,607.4112 Q1151.2865,608.4779 1152.6312,608.4779 Q1153.2621,608.4779 1153.8556,608.2081 Q1154.4491,607.9383 1155.0799,607.3573 Z " fill="#000000"/><text fill="#000000" font-family="Menlo" font-size="14" lengthAdjust="spacing" textLength="109.5732" x="1173.1068" y="608.7836">AcousticModel</text><line style="stroke:#000000;stroke-width:0.5;" x1="1000.14" x2="1423.1468" y1="619.9369" y2="619.9369"/><text fill="#000000" font-family="Menlo" font-size="14" lengthAdjust="spacing" textLength="413.0068" x="1005.14" y="636.932">path: Path   &lt;&lt;model_parameters/&lt;db&gt;.cd_cont_N/&gt;&gt;</text><text fill="#000000" font-family="Menlo" font-size="14" lengthAdjust="spacing" textLength="278.1475" x="1005.14" y="653.2289">hmm_type: str   &#171;.cont. | .semi.&#187;</text><text fill="#000000" font-family="Menlo" font-size="14" lengthAdjust="spacing" textLength="160.1455" x="1005.14" y="669.5257">states_per_hmm: int</text><text fill="#000000" font-family="Menlo" font-size="14" lengthAdjust="spacing" textLength="151.7168" x="1005.14" y="685.8226">n_tied_states: int</text><line style="stroke:#000000;stroke-width:1;" x1="1000.14" x2="1423.1468" y1="693.1244" y2="693.1244"/><text fill="#000000" font-family="Menlo" font-size="14" lengthAdjust="spacing" textLength="278.1475" x="1005.14" y="710.1195">means, variances, mixture_weights</text><text fill="#000000" font-family="Menlo" font-size="14" lengthAdjust="spacing" textLength="160.1455" x="1005.14" y="726.4164">transition_matrices</text><text fill="#000000" font-family="Menlo" font-size="14" lengthAdjust="spacing" textLength="193.8604" x="1005.14" y="742.7132">mdef: senone definition</text></g><!--class Experiment--><g class="entity" data-qualified-name="Experiment" data-source-line="94" id="ent0011"><rect fill="#FAFAFA" height="145.7813" rx="2.5" ry="2.5" style="stroke:#000000;stroke-width:0.5;" width="239.5752" x="862.86" y="44.2969"/><ellipse cx="936.254" cy="60.2969" fill="#ADD1B2" rx="11" ry="11" style="stroke:#181818;stroke-width:1;"/><path d="M938.7272,66.4399 Q938.1461,66.7388 937.507,66.8882 Q936.8678,67.0376 936.1622,67.0376 Q933.6554,67.0376 932.3356,65.3857 Q931.0158,63.7339 931.0158,60.6128 Q931.0158,57.4834 932.3356,55.8315 Q933.6554,54.1797 936.1622,54.1797 Q936.8678,54.1797 937.5153,54.3291 Q938.1627,54.4785 938.7272,54.7773 L938.7272,57.5 Q938.0963,56.9189 937.5028,56.6492 Q936.9093,56.3794 936.2785,56.3794 Q934.9337,56.3794 934.2489,57.446 Q933.5641,58.5127 933.5641,60.6128 Q933.5641,62.7046 934.2489,63.7712 Q934.9337,64.8379 936.2785,64.8379 Q936.9093,64.8379 937.5028,64.5681 Q938.0963,64.2983 938.7272,63.7173 Z " fill="#000000"/><text fill="#000000" font-family="Menlo" font-size="14" lengthAdjust="spacing" textLength="84.2871" x="956.754" y="65.1436">Experiment</text><line style="stroke:#000000;stroke-width:0.5;" x1="863.86" x2="1101.4352" y1="76.2969" y2="76.2969"/><text fill="#000000" font-family="Menlo" font-size="14" lengthAdjust="spacing" textLength="75.8584" x="868.86" y="93.292">name: str</text><text fill="#000000" font-family="Menlo" font-size="14" lengthAdjust="spacing" textLength="227.5752" x="868.86" y="109.5889">train_corpora: list&lt;Corpus&gt;</text><text fill="#000000" font-family="Menlo" font-size="14" lengthAdjust="spacing" textLength="177.0029" x="868.86" y="125.8857">decode_corpus: Corpus</text><text fill="#000000" font-family="Menlo" font-size="14" lengthAdjust="spacing" textLength="160.1455" x="868.86" y="142.1826">cfg: SphinxTrainCfg</text><text fill="#000000" font-family="Menlo" font-size="14" lengthAdjust="spacing" textLength="177.0029" x="868.86" y="158.4795">model: AcousticModel?</text><text fill="#000000" font-family="Menlo" font-size="14" lengthAdjust="spacing" textLength="177.0029" x="868.86" y="174.7764">result: DecodeResult?</text><line style="stroke:#000000;stroke-width:0.5;" x1="863.86" x2="1101.4352" y1="182.0781" y2="182.0781"/></g><!--class SphinxTrainCfg--><g class="entity" data-qualified-name="SphinxTrainCfg" data-source-line="103" id="ent0012"><rect fill="#FAFAFA" height="178.375" rx="2.5" ry="2.5" style="stroke:#000000;stroke-width:0.5;" width="256.4326" x="1035.43" y="307.8269"/><ellipse cx="1100.3953" cy="323.8269" fill="#ADD1B2" rx="11" ry="11" style="stroke:#181818;stroke-width:1;"/><path d="M1102.8685,329.9699 Q1102.2874,330.2688 1101.6483,330.4182 Q1101.0091,330.5676 1100.3035,330.5676 Q1097.7967,330.5676 1096.4769,328.9157 Q1095.1571,327.2639 1095.1571,324.1428 Q1095.1571,321.0134 1096.4769,319.3615 Q1097.7967,317.7097 1100.3035,317.7097 Q1101.0091,317.7097 1101.6566,317.8591 Q1102.304,318.0085 1102.8685,318.3073 L1102.8685,321.03 Q1102.2376,320.4489 1101.6441,320.1792 Q1101.0506,319.9094 1100.4197,319.9094 Q1099.075,319.9094 1098.3902,320.976 Q1097.7054,322.0427 1097.7054,324.1428 Q1097.7054,326.2346 1098.3902,327.3012 Q1099.075,328.3679 1100.4197,328.3679 Q1101.0506,328.3679 1101.6441,328.0981 Q1102.2376,327.8283 1102.8685,327.2473 Z " fill="#000000"/><text fill="#000000" font-family="Menlo" font-size="14" lengthAdjust="spacing" textLength="118.002" x="1120.8953" y="328.6736">SphinxTrainCfg</text><line style="stroke:#000000;stroke-width:0.5;" x1="1036.43" x2="1290.8626" y1="339.8269" y2="339.8269"/><text fill="#000000" font-family="Menlo" font-size="14" lengthAdjust="spacing" textLength="143.2881" x="1041.43" y="356.822">CFG_HMM_TYPE: str</text><text fill="#000000" font-family="Menlo" font-size="14" lengthAdjust="spacing" textLength="185.4316" x="1041.43" y="373.1189">CFG_N_TIED_STATES: int</text><text fill="#000000" font-family="Menlo" font-size="14" lengthAdjust="spacing" textLength="118.002" x="1041.43" y="389.4157">CFG_NPART: int</text><text fill="#000000" font-family="Menlo" font-size="14" lengthAdjust="spacing" textLength="160.1455" x="1041.43" y="405.7126">CFG_QUEUE_TYPE: str</text><text fill="#000000" font-family="Menlo" font-size="14" lengthAdjust="spacing" textLength="151.7168" x="1041.43" y="422.0095">DEC_CFG_NPART: int</text><text fill="#000000" font-family="Menlo" font-size="14" lengthAdjust="spacing" textLength="202.2891" x="1041.43" y="438.3064">DEC_CFG_BEAMWIDTH: float</text><text fill="#000000" font-family="Menlo" font-size="14" lengthAdjust="spacing" textLength="244.4326" x="1041.43" y="454.6032">DEC_CFG_LANGUAGEWEIGHT: float</text><text fill="#000000" font-family="Menlo" font-size="14" lengthAdjust="spacing" textLength="219.1465" x="1041.43" y="470.9001">DEC_CFG_WORDPENALTY: float</text><line style="stroke:#000000;stroke-width:0.5;" x1="1036.43" x2="1290.8626" y1="478.2019" y2="478.2019"/></g><!--class DecodeResult--><g class="entity" data-qualified-name="DecodeResult" data-source-line="114" id="ent0013"><rect fill="#FAFAFA" height="113.1875" rx="2.5" ry="2.5" style="stroke:#000000;stroke-width:0.5;" width="239.5752" x="1326.86" y="340.4169"/><ellipse cx="1391.8253" cy="356.4169" fill="#ADD1B2" rx="11" ry="11" style="stroke:#181818;stroke-width:1;"/><path d="M1394.2985,362.5599 Q1393.7174,362.8588 1393.0783,363.0082 Q1392.4391,363.1576 1391.7335,363.1576 Q1389.2267,363.1576 1387.9069,361.5057 Q1386.5871,359.8539 1386.5871,356.7328 Q1386.5871,353.6034 1387.9069,351.9515 Q1389.2267,350.2997 1391.7335,350.2997 Q1392.4391,350.2997 1393.0866,350.4491 Q1393.734,350.5985 1394.2985,350.8973 L1394.2985,353.62 Q1393.6676,353.0389 1393.0741,352.7692 Q1392.4806,352.4994 1391.8497,352.4994 Q1390.505,352.4994 1389.8202,353.566 Q1389.1354,354.6327 1389.1354,356.7328 Q1389.1354,358.8246 1389.8202,359.8912 Q1390.505,360.9579 1391.8497,360.9579 Q1392.4806,360.9579 1393.0741,360.6881 Q1393.6676,360.4183 1394.2985,359.8373 Z " fill="#000000"/><text fill="#000000" font-family="Menlo" font-size="14" lengthAdjust="spacing" textLength="101.1445" x="1412.3253" y="361.2636">DecodeResult</text><line style="stroke:#000000;stroke-width:0.5;" x1="1327.86" x2="1565.4352" y1="372.4169" y2="372.4169"/><text fill="#000000" font-family="Menlo" font-size="14" lengthAdjust="spacing" textLength="227.5752" x="1332.86" y="389.412">hypotheses: list&lt;Utterance&gt;</text><text fill="#000000" font-family="Menlo" font-size="14" lengthAdjust="spacing" textLength="84.2871" x="1332.86" y="405.7089">wer: float</text><text fill="#000000" font-family="Menlo" font-size="14" lengthAdjust="spacing" textLength="84.2871" x="1332.86" y="422.0057">ser: float</text><text fill="#000000" font-family="Menlo" font-size="14" lengthAdjust="spacing" textLength="193.8604" x="1332.86" y="438.3026">match_files: list&lt;Path&gt;</text><line style="stroke:#000000;stroke-width:0.5;" x1="1327.86" x2="1565.4352" y1="445.6044" y2="445.6044"/></g><!--reverse link Corpus to Split--><g class="link" data-entity-1="ent0002" data-entity-2="ent0003" data-link-type="composition" data-source-line="121" id="lnk14"><path codeLine="121" d="M599.6295,458.2519 C511.8495,504.6219 397.02,565.2869 308.54,612.0369" fill="none" id="Corpus-backto-Split" style="stroke:#000000;stroke-width:1;"/><polygon fill="#000000" points="610.24,452.6469,603.0664,451.9126,599.6295,458.2519,606.8031,458.9862,610.24,452.6469" style="stroke:#000000;stroke-width:1;"/><text fill="#000000" font-family="Menlo" font-size="13" lengthAdjust="spacing" textLength="7.8267" x="594.7535" y="453.5552">1</text><text fill="#000000" font-family="Menlo" font-size="13" lengthAdjust="spacing" textLength="31.3066" x="288.5757" y="601.2578">many</text></g><!--reverse link Split to Utterance--><g class="link" data-entity-1="ent0003" data-entity-2="ent0004" data-link-type="composition" data-source-line="122" id="lnk15"><path codeLine="122" d="M202.65,737.9769 C202.65,768.6369 202.65,794.7569 202.65,826.6169" fill="none" id="Split-backto-Utterance" style="stroke:#000000;stroke-width:1;"/><polygon fill="#000000" points="202.65,725.9769,198.65,731.9769,202.65,737.9769,206.65,731.9769,202.65,725.9769" style="stroke:#000000;stroke-width:1;"/><text fill="#000000" font-family="Menlo" font-size="13" lengthAdjust="spacing" textLength="7.8267" x="195.2938" y="745.5088">1</text><text fill="#000000" font-family="Menlo" font-size="13" lengthAdjust="spacing" textLength="31.3066" x="169.9724" y="815.7458">many</text></g><!--reverse link Utterance to Features--><g class="link" data-entity-1="ent0004" data-entity-2="ent0005" data-link-type="aggregation" data-source-line="123" id="lnk16"><path codeLine="123" d="M202.65,968.8369 C202.65,988.2569 202.65,997.5969 202.65,1017.0269" fill="none" id="Utterance-backto-Features" style="stroke:#000000;stroke-width:1;"/><polygon fill="none" points="202.65,956.8369,198.65,962.8369,202.65,968.8369,206.65,962.8369,202.65,956.8369" style="stroke:#000000;stroke-width:1;"/><text fill="#000000" font-family="Menlo" font-size="13" lengthAdjust="spacing" textLength="7.8267" x="195.3326" y="976.3952">1</text><text fill="#000000" font-family="Menlo" font-size="13" lengthAdjust="spacing" textLength="7.8267" x="195.3321" y="1006.6011">1</text></g><!--reverse link Corpus to Dictionary--><g class="link" data-entity-1="ent0002" data-entity-2="ent0006" data-link-type="composition" data-source-line="124" id="lnk17"><path codeLine="124" d="M613.9065,536.8112 C594.7165,563.5112 582.3,580.7869 565.68,603.9269" fill="none" id="Corpus-backto-Dictionary" style="stroke:#000000;stroke-width:1;"/><polygon fill="#000000" points="620.91,527.0669,614.1602,529.6045,613.9065,536.8112,620.6564,534.2735,620.91,527.0669" style="stroke:#000000;stroke-width:1;"/><text fill="#000000" font-family="Menlo" font-size="13" lengthAdjust="spacing" textLength="7.8267" x="608.37" y="547.0903">1</text><text fill="#000000" font-family="Menlo" font-size="13" lengthAdjust="spacing" textLength="7.8267" x="563.3775" y="593.0656">1</text></g><!--reverse link Dictionary to Phone--><g class="link" data-entity-1="ent0006" data-entity-2="ent0007" data-link-type="composition" data-source-line="125" id="lnk18"><path codeLine="125" d="M652.8785,739.5718 C663.4985,744.9918 663.4,744.8969 673.65,750.0169 C743.43,784.9069 823.29,823.1569 882,850.9669" fill="none" id="Dictionary-backto-Phone" style="stroke:#000000;stroke-width:1;"/><polygon fill="#000000" points="642.19,734.1169,645.7159,740.4072,652.8785,739.5718,649.3526,733.2815,642.19,734.1169" style="stroke:#000000;stroke-width:1;"/><text fill="#000000" font-family="Menlo" font-size="13" lengthAdjust="spacing" textLength="7.8267" x="647.5091" y="753.6814">1</text><text fill="#000000" font-family="Menlo" font-size="13" lengthAdjust="spacing" textLength="31.3066" x="835.064" y="840.347">many</text></g><!--link Phone to CD_Phone--><g class="link" data-entity-1="ent0007" data-entity-2="ent0008" data-link-type="association" data-source-line="126" id="lnk19"><path codeLine="126" d="M1003.12,932.2769 C1028.04,959.2569 1061.41,995.4069 1089.04,1025.3369" fill="none" id="Phone-CD_Phone" style="stroke:#000000;stroke-width:1;"/><text fill="#000000" font-family="Menlo" font-size="13" lengthAdjust="spacing" textLength="7.8267" x="1001.4414" y="952.0064">1</text><text fill="#000000" font-family="Menlo" font-size="13" lengthAdjust="spacing" textLength="31.3066" x="1049.8806" y="1014.5627">many</text></g><!--reverse link Corpus to LanguageModel--><g class="link" data-entity-1="ent0002" data-entity-2="ent0009" data-link-type="composition" data-source-line="127" id="lnk20"><path codeLine="127" d="M772.81,538.1209 C784.09,564.8209 790.83,580.7869 800.6,603.9269" fill="none" id="Corpus-backto-LanguageModel" style="stroke:#000000;stroke-width:1;"/><polygon fill="#000000" points="768.14,527.0669,766.7903,534.1505,772.81,538.1209,774.1597,531.0372,768.14,527.0669" style="stroke:#000000;stroke-width:1;"/><text fill="#000000" font-family="Menlo" font-size="13" lengthAdjust="spacing" textLength="7.8267" x="764.1117" y="547.0903">1</text><text fill="#000000" font-family="Menlo" font-size="13" lengthAdjust="spacing" textLength="7.8267" x="790.3043" y="593.0656">1</text></g><!--link Experiment to Corpus--><g class="link" data-entity-1="ent0011" data-entity-2="ent0002" data-link-type="dependency" data-source-line="129" id="lnk21"><path codeLine="129" d="M862.4,131.9669 C806.53,145.0669 744.98,170.5569 710.65,220.0769 C700.99,234.0169 696.5204,244.2389 694.0904,261.0089" fill="none" id="Experiment-to-Corpus" style="stroke:#000000;stroke-width:1;"/><polygon fill="#000000" points="693.23,266.9469,698.4793,258.6135,693.947,261.9986,690.562,257.4663,693.23,266.9469" style="stroke:#000000;stroke-width:1;"/><text fill="#000000" font-family="Menlo" font-size="13" lengthAdjust="spacing" textLength="101.7466" x="711.65" y="233.1438">train_corpora</text><text fill="#000000" font-family="Menlo" font-size="13" lengthAdjust="spacing" textLength="31.3066" x="823.561" y="129.4584">many</text><text fill="#000000" font-family="Menlo" font-size="13" lengthAdjust="spacing" textLength="31.3066" x="660.1622" y="256.0649">many</text></g><!--link Experiment to Corpus--><g class="link" data-entity-1="ent0011" data-entity-2="ent0002" data-link-type="dependency" data-source-line="130" id="lnk22"><path codeLine="130" d="M886.12,190.3769 C874.84,199.9869 863.75,210.0069 853.65,220.0769 C839.13,234.5469 828.5722,245.9106 814.7722,262.1006" fill="none" id="Experiment-to-Corpus-1" style="stroke:#000000;stroke-width:1;"/><polygon fill="#000000" points="810.88,266.6669,819.7625,262.4123,814.1235,262.8616,813.6741,257.2227,810.88,266.6669" style="stroke:#000000;stroke-width:1;"/><text fill="#000000" font-family="Menlo" font-size="13" lengthAdjust="spacing" textLength="101.7466" x="854.65" y="233.1438">decode_corpus</text><text fill="#000000" font-family="Menlo" font-size="13" lengthAdjust="spacing" textLength="7.8267" x="869.6255" y="210.1408">1</text><text fill="#000000" font-family="Menlo" font-size="13" lengthAdjust="spacing" textLength="7.8267" x="809.0285" y="256.1993">1</text></g><!--reverse link Experiment to SphinxTrainCfg--><g class="link" data-entity-1="ent0011" data-entity-2="ent0012" data-link-type="composition" data-source-line="131" id="lnk23"><path codeLine="131" d="M1036.2796,200.5118 C1059.5796,236.2818 1081.38,269.7269 1105.97,307.4869" fill="none" id="Experiment-backto-SphinxTrainCfg" style="stroke:#000000;stroke-width:1;"/><polygon fill="#000000" points="1029.73,190.4569,1029.6532,197.6676,1036.2796,200.5118,1036.3565,193.3011,1029.73,190.4569" style="stroke:#000000;stroke-width:1;"/><text fill="#000000" font-family="Menlo" font-size="13" lengthAdjust="spacing" textLength="7.8267" x="1026.9233" y="210.2284">1</text><text fill="#000000" font-family="Menlo" font-size="13" lengthAdjust="spacing" textLength="7.8267" x="1094.128" y="296.8272">1</text></g><!--reverse link Experiment to AcousticModel--><g class="link" data-entity-1="ent0011" data-entity-2="ent0010" data-link-type="composition" data-source-line="132" id="lnk24"><path codeLine="132" d="M970.342,202.1954 C960.912,288.1954 958.22,421.6469 1017.65,526.9369 C1030.64,549.9669 1049.13,570.2469 1069.58,587.7269" fill="none" id="Experiment-backto-AcousticModel" style="stroke:#000000;stroke-width:1;"/><polygon fill="#000000" points="971.65,190.2669,967.0198,195.7951,970.342,202.1954,974.9722,196.6671,971.65,190.2669" style="stroke:#000000;stroke-width:1;"/><text fill="#000000" font-family="Menlo" font-size="13" lengthAdjust="spacing" textLength="31.3066" x="938.1391" y="210.0203">0..1</text><text fill="#000000" font-family="Menlo" font-size="13" lengthAdjust="spacing" textLength="7.8267" x="1049.6526" y="576.8955">1</text></g><!--reverse link Experiment to DecodeResult--><g class="link" data-entity-1="ent0011" data-entity-2="ent0013" data-link-type="composition" data-source-line="133" id="lnk25"><path codeLine="133" d="M1113.7036,166.2387 C1177.8236,192.1887 1245.42,223.9669 1309.65,267.0769 C1340.56,287.8369 1371.11,315.6669 1395.49,340.1669" fill="none" id="Experiment-backto-DecodeResult" style="stroke:#000000;stroke-width:1;"/><polygon fill="#000000" points="1102.58,161.7369,1106.6412,167.6956,1113.7036,166.2387,1109.6424,160.2799,1102.58,161.7369" style="stroke:#000000;stroke-width:1;"/><text fill="#000000" font-family="Menlo" font-size="13" lengthAdjust="spacing" textLength="31.3066" x="1110.4185" y="160.9495">0..1</text><text fill="#000000" font-family="Menlo" font-size="13" lengthAdjust="spacing" textLength="7.8267" x="1381.879" y="329.4">1</text></g><!--link AcousticModel to CD_Phone--><g class="link" data-entity-1="ent0010" data-entity-2="ent0008" data-link-type="dependency" data-source-line="135" id="lnk26"><path codeLine="135" d="M1197.79,750.2469 C1183.8,831.2469 1163.6013,948.2944 1151.3313,1019.3244" fill="none" id="AcousticModel-to-CD_Phone" style="stroke:#000000;stroke-width:1;"/><polygon fill="#000000" points="1150.31,1025.2369,1155.7836,1017.0491,1151.1611,1020.3098,1147.9004,1015.6873,1150.31,1025.2369" style="stroke:#000000;stroke-width:1;"/><text fill="#000000" font-family="Menlo" font-size="13" lengthAdjust="spacing" textLength="54.7866" x="1185.36" y="896.3238">senones</text></g><!--link AcousticModel to Phone--><g class="link" data-entity-1="ent0010" data-entity-2="ent0007" data-link-type="dependency" data-source-line="136" id="lnk27"><path codeLine="136" d="M1122.5,750.3069 C1084.47,784.5869 1046.2471,819.0302 1015.1771,847.0302" fill="none" id="AcousticModel-to-Phone" style="stroke:#000000;stroke-width:1;"/><polygon fill="#000000" points="1010.72,851.0469,1020.0835,847.9932,1014.4343,847.6996,1014.7279,842.0504,1010.72,851.0469" style="stroke:#000000;stroke-width:1;"/><text fill="#000000" font-family="Menlo" font-size="13" lengthAdjust="spacing" textLength="70.4399" x="1090.15" y="793.0838">CI states</text></g><?plantuml-src VLNTRk8u5BxFKrZTctQsqAtsBifGKKXRf49PIjMTAyia3bXruiXssgBTbVOX-bpp4FiaU_mJOYWpW4ZydUFFn-TNCyqf6WbPDmfTe9nb6XxtK_WhAD6Df0hzz-y7oaL9M8LAaLCUHUg5LJMHf4GvBKZ3zOsez8oK54rfnKKWppXH2lqL8VXSa-nbBKLJvIF1XKI_t0pDryc4pAbq-3K7HOiEfHHl8VXF53b6Rx4Zhk3a62ajxOeqEHEu4B8a-X3LsphGLAIiESMIQ01PfHrPK-A2STqXN1m06tO0P6KLevKGtAvwFSTUSwPLZAQaJeo5vuy665YPyNECnl3FH4NarfrJnkYULEk6hEdKEjgWHSCvrf9KAfEiDeHpeZTNJiOufn8WpfHEu5g3paFsj1yxoD6uwuZ6S1HS41rUeD6QmhaPLQTdCPgOXHOoUMhXuB0TvWy4moZBtHbcZP94KewqG8_pkydiJxnuU5WEd2-wkmMHgIbveH8R3i2kWX3MG1aOtsPfZ6xysrLdLWjvgxgjo7-If5yMsQ0DIcb3Yb0d_hhB1_G5_OvEHzFPhzy_uFVzuynlW-1ZKeEtQHua0S_94RJaN1_0EsExRFXahbtIIaj6VKAzGRsSkx3N6r5HRujz1nL5TJAtU1XGBiHBKv-QlMTnkDbAcS92lBRIVTiibpTBRSkLu5siF3aOvqu_pVGxvhJGvyYyIRRUQ20SZR5b2MhO8vutWmjI6RkpdBr0We4Zn2pT8TXM7Aq0iKbZmfWaf016fBUiMW-2RDqhicEvaIJ3nNpeVMexKviOIKBxwpvambTpuJMqEA_rAZAoSewtTHYOLKknEdK1su3FXToUXTMsWiOcYk876ZkZXvbeb6RPJuostHdRnalXukeYoLU3VfRZ3DepdbruKpTbsJL2LmH6eO_-Hdr5IzRtUaf3OrIuXZg4BK67n1hI5pjn1_lRbXJA-Hoz4ibixpX79NitLOZVg8cTwegUcNp7qAOb0qMt6mPAx0DfXWkhh5BdXlGTx64bvChHtWQyh8Bxobf8udFSpGfVupG39rc51cnt8fT-nJg6fhbXrVlIa8oAjRF8E3NUTx_hHz1O6ZC5nfPpOLTNOGCEkRorevjRV3UTukMtUTfPRT0PNaxICNvS3fVfO-TLAveF5yjzw8-dz2azO1cd8tn4lOMlq-7qUJ9UteN9rmhlXxFRf-5j-fnERk-MnpIU7nRZUJeRtY-_VShDq0F-efjjBVI6AjfEfs1i6FcRgQdk5BM_X9p8DgRjxhQR9BSbx2V_oUK9-jBhePEILDiJD-qYD_CEPRkJesvC6HLXLE3PJebFrF0CHdJGdmyES8t8zJ8ZwYIxfdU4Ud_KHq5Y-ysztc37uxR7-_czj-VIRxWCjFUo_L2xjUCWvqEjt_hzG76l17wY5sP35EttBMFYhk-tXQwEABKQeudlGz7_?></g></svg>