<svg xmlns="http://www.w3.org/2000/svg" xmlns:xlink="http://www.w3.org/1999/xlink" version="1.1" data-diagram-type="DESCRIPTION" style="width:2918px;height:797px;background:#FFFFFF;" width="2918px" height="797px" viewBox="0 0 2918 797" zoomAndPan="magnify" preserveAspectRatio="none" contentStyleType="text/css"><?plantuml 1.2026.8?><defs/><g font-family="sans-serif" lengthAdjust="spacing"><g class="title" data-source-line="2"><text x="1204.843" y="24.502" fill="#000" font-size="15" textLength="501.335" font-weight="700">CMU Sphinx reference: toolchain components and their contracts</text></g><!--cluster SphinxTrain (acoustic model trainer)--><g class="cluster" data-qualified-name="SphinxTrain .acoustic model trainer." id="ent0001" data-source-line="4"><path d="M195.521,44.666 L422.166,44.666 A3.75,3.75 0 0 1 424.666,47.166 L431.666,64.799 L964.521,64.799 A2.5,2.5 0 0 1 967.021,67.299 L967.021,642.756 A2.5,2.5 0 0 1 964.521,645.256 L195.521,645.256 A2.5,2.5 0 0 1 193.021,642.756 L193.021,47.166 A2.5,2.5 0 0 1 195.521,44.666" style="stroke:#444;stroke-width:1.5;" fill="none"/><line x1="193.021" y1="64.799" x2="431.666" y2="64.799" style="stroke:#444;stroke-width:1.5;"/><text x="197.021" y="58.268" fill="#000" font-size="12" textLength="225.645" font-weight="700">SphinxTrain (acoustic model trainer)</text></g><!--cluster PocketSphinx (decoder)--><g class="cluster" data-qualified-name="PocketSphinx .decoder." id="ent0008" data-source-line="12"><path d="M1681.521,365.726 L1827.301,365.726 A3.75,3.75 0 0 1 1829.801,368.226 L1836.801,385.859 L2088.521,385.859 A2.5,2.5 0 0 1 2091.021,388.359 L2091.021,649.826 A2.5,2.5 0 0 1 2088.521,652.326 L1681.521,652.326 A2.5,2.5 0 0 1 1679.021,649.826 L1679.021,368.226 A2.5,2.5 0 0 1 1681.521,365.726" style="stroke:#444;stroke-width:1.5;" fill="none"/><line x1="1679.021" y1="385.859" x2="1836.801" y2="385.859" style="stroke:#444;stroke-width:1.5;"/><text x="1683.021" y="379.328" fill="#000" font-size="12" textLength="144.779" font-weight="700">PocketSphinx (decoder)</text></g><!--cluster CMU-Cambridge SLM Toolkit (language model)--><g class="cluster" data-qualified-name="CMU-Cambridge SLM Toolkit .language model." id="ent0012" data-source-line="17"><path d="M2117.521,358.656 L2410.043,358.656 A3.75,3.75 0 0 1 2412.543,361.156 L2419.543,378.789 L2419.521,378.789 A2.5,2.5 0 0 1 2422.021,381.289 L2422.021,463.426 A2.5,2.5 0 0 1 2419.521,465.926 L2117.521,465.926 A2.5,2.5 0 0 1 2115.021,463.426 L2115.021,361.156 A2.5,2.5 0 0 1 2117.521,358.656" style="stroke:#444;stroke-width:1.5;" fill="none"/><line x1="2115.021" y1="378.789" x2="2419.543" y2="378.789" style="stroke:#444;stroke-width:1.5;"/><text x="2119.021" y="372.258" fill="#000" font-size="12" textLength="291.521" font-weight="700">CMU-Cambridge SLM Toolkit (language model)</text></g><!--cluster Scoring--><g class="cluster" data-qualified-name="Scoring" id="ent0014" data-source-line="20"><path d="M2683.521,358.656 L2730.582,358.656 A3.75,3.75 0 0 1 2733.082,361.156 L2740.082,378.789 L2900.521,378.789 A2.5,2.5 0 0 1 2903.021,381.289 L2903.021,463.426 A2.5,2.5 0 0 1 2900.521,465.926 L2683.521,465.926 A2.5,2.5 0 0 1 2681.021,463.426 L2681.021,361.156 A2.5,2.5 0 0 1 2683.521,358.656" style="stroke:#444;stroke-width:1.5;" fill="none"/><line x1="2681.021" y1="378.789" x2="2740.082" y2="378.789" style="stroke:#444;stroke-width:1.5;"/><text x="2685.021" y="372.258" fill="#000" font-size="12" textLength="46.061" font-weight="700">Scoring</text></g><!--entity PERL--><g class="entity" data-qualified-name="SphinxTrain .acoustic model trainer..PERL" id="ent0002" data-source-line="5"><rect x="690.771" y="209.926" width="260.5" height="86.531" fill="#FAFAFA" style="stroke:#000;stroke-width:0.5;" rx="2.5" ry="2.5"/><rect x="931.271" y="214.926" width="15" height="10" fill="#FAFAFA" style="stroke:#000;stroke-width:0.5;"/><rect x="929.271" y="216.926" width="4" height="2" fill="#FAFAFA" style="stroke:#000;stroke-width:0.5;"/><rect x="929.271" y="220.926" width="4" height="2" fill="#FAFAFA" style="stroke:#000;stroke-width:0.5;"/><text x="705.771" y="241.528" fill="#000" font-size="12" textLength="102.973">Perl orchestration</text><text x="705.771" y="255.66" fill="#000" font-size="12" textLength="153.469">scripts/NN.step/slave_*.pl</text><text x="705.771" y="269.793" fill="#000" font-size="12" textLength="220.5">(00.verify ... 90.deleted_interpolation,</text><text x="705.771" y="283.926" fill="#000" font-size="12" textLength="96.117">decode/slave.pl)</text></g><!--entity STLIB--><g class="entity" data-qualified-name="SphinxTrain .acoustic model trainer..STLIB" id="ent0003" data-source-line="6"><rect x="209.051" y="377.526" width="187.932" height="86.531" fill="#FAFAFA" style="stroke:#000;stroke-width:0.5;" rx="2.5" ry="2.5"/><rect x="376.983" y="382.526" width="15" height="10" fill="#FAFAFA" style="stroke:#000;stroke-width:0.5;"/><rect x="374.983" y="384.526" width="4" height="2" fill="#FAFAFA" style="stroke:#000;stroke-width:0.5;"/><rect x="374.983" y="388.526" width="4" height="2" fill="#FAFAFA" style="stroke:#000;stroke-width:0.5;"/><text x="224.051" y="409.128" fill="#000" font-size="12" textLength="115.857">SphinxTrain::Config</text><text x="224.051" y="423.26" fill="#000" font-size="12" textLength="97.113">SphinxTrain::Util</text><text x="224.051" y="437.393" fill="#000" font-size="12" textLength="147.932">(Log, RunTool, RunScript,</text><text x="224.051" y="451.526" fill="#000" font-size="12" textLength="135.387">LaunchScript, WaitFor*)</text></g><!--entity Q--><g class="entity" data-qualified-name="SphinxTrain .acoustic model trainer..Q" id="ent0004" data-source-line="7"><rect x="214.711" y="570.996" width="176.611" height="58.266" fill="#FAFAFA" style="stroke:#000;stroke-width:0.5;" rx="2.5" ry="2.5"/><rect x="371.323" y="575.996" width="15" height="10" fill="#FAFAFA" style="stroke:#000;stroke-width:0.5;"/><rect x="369.323" y="577.996" width="4" height="2" fill="#FAFAFA" style="stroke:#000;stroke-width:0.5;"/><rect x="369.323" y="581.996" width="4" height="2" fill="#FAFAFA" style="stroke:#000;stroke-width:0.5;"/><text x="229.711" y="602.598" fill="#000" font-size="12" textLength="127.547">Queue, Queue::POSIX,</text><text x="229.711" y="616.73" fill="#000" font-size="12" textLength="136.611">Queue::PBS, Queue::Job</text></g><!--entity CT--><g class="entity" data-qualified-name="SphinxTrain .acoustic model trainer..CT" id="ent0005" data-source-line="8"><rect x="432.011" y="370.456" width="260.025" height="100.664" fill="#FAFAFA" style="stroke:#000;stroke-width:0.5;" rx="2.5" ry="2.5"/><rect x="672.037" y="375.456" width="15" height="10" fill="#FAFAFA" style="stroke:#000;stroke-width:0.5;"/><rect x="670.037" y="377.456" width="4" height="2" fill="#FAFAFA" style="stroke:#000;stroke-width:0.5;"/><rect x="670.037" y="381.456" width="4" height="2" fill="#FAFAFA" style="stroke:#000;stroke-width:0.5;"/><text x="447.011" y="402.058" fill="#000" font-size="12" textLength="77.279">C tools (bin/)</text><text x="447.011" y="416.19" fill="#000" font-size="12" textLength="212.145">bw, norm, init_mixw, mk_mdef_gen,</text><text x="447.011" y="430.323" fill="#000" font-size="12" textLength="210.996">mk_flat, bldtree, prunetree, tiestate,</text><text x="447.011" y="444.456" fill="#000" font-size="12" textLength="220.025">inc_comp, map_adapt, sphinx3_align,</text><text x="447.011" y="458.589" fill="#000" font-size="12" textLength="171.199">mk_s2sendump, sphinx_fe ...</text></g><!--entity PY--><g class="entity" data-qualified-name="SphinxTrain .acoustic model trainer..PY" id="ent0006" data-source-line="9"><rect x="727.101" y="384.596" width="223.844" height="72.398" fill="#FAFAFA" style="stroke:#000;stroke-width:0.5;" rx="2.5" ry="2.5"/><rect x="930.945" y="389.596" width="15" height="10" fill="#FAFAFA" style="stroke:#000;stroke-width:0.5;"/><rect x="928.945" y="391.596" width="4" height="2" fill="#FAFAFA" style="stroke:#000;stroke-width:0.5;"/><rect x="928.945" y="395.596" width="4" height="2" fill="#FAFAFA" style="stroke:#000;stroke-width:0.5;"/><text x="742.101" y="416.198" fill="#000" font-size="12" textLength="93.299">Python modules</text><text x="742.101" y="430.33" fill="#000" font-size="12" textLength="183.844">cmusphinx.lda, cmusphinx.mllt</text><text x="742.101" y="444.463" fill="#000" font-size="12" textLength="84.873">(numpy, scipy)</text></g><!--entity STCLI--><g class="entity" data-qualified-name="SphinxTrain .acoustic model trainer..STCLI" id="ent0007" data-source-line="10"><rect x="701.731" y="77.666" width="238.58" height="58.266" fill="#FAFAFA" style="stroke:#000;stroke-width:0.5;" rx="2.5" ry="2.5"/><rect x="920.312" y="82.666" width="15" height="10" fill="#FAFAFA" style="stroke:#000;stroke-width:0.5;"/><rect x="918.312" y="84.666" width="4" height="2" fill="#FAFAFA" style="stroke:#000;stroke-width:0.5;"/><rect x="918.312" y="88.666" width="4" height="2" fill="#FAFAFA" style="stroke:#000;stroke-width:0.5;"/><text x="716.731" y="109.268" fill="#000" font-size="12" textLength="111.428">scripts/sphinxtrain</text><text x="716.731" y="123.4" fill="#000" font-size="12" textLength="198.58">(Python CLI: setup / run / -s step)</text></g><!--entity PSB--><g class="entity" data-qualified-name="PocketSphinx .decoder..PSB" id="ent0009" data-source-line="13"><rect x="1694.561" y="398.726" width="156.912" height="44.133" fill="#FAFAFA" style="stroke:#000;stroke-width:0.5;" rx="2.5" ry="2.5"/><rect x="1831.474" y="403.726" width="15" height="10" fill="#FAFAFA" style="stroke:#000;stroke-width:0.5;"/><rect x="1829.474" y="405.726" width="4" height="2" fill="#FAFAFA" style="stroke:#000;stroke-width:0.5;"/><rect x="1829.474" y="409.726" width="4" height="2" fill="#FAFAFA" style="stroke:#000;stroke-width:0.5;"/><text x="1709.561" y="430.328" fill="#000" font-size="12" textLength="116.912">pocketsphinx_batch</text></g><!--entity LIBPS--><g class="entity" data-qualified-name="PocketSphinx .decoder..LIBPS" id="ent0010" data-source-line="14"><rect x="1697.901" y="563.926" width="194.236" height="72.398" fill="#FAFAFA" style="stroke:#000;stroke-width:0.5;" rx="2.5" ry="2.5"/><rect x="1872.138" y="568.926" width="15" height="10" fill="#FAFAFA" style="stroke:#000;stroke-width:0.5;"/><rect x="1870.138" y="570.926" width="4" height="2" fill="#FAFAFA" style="stroke:#000;stroke-width:0.5;"/><rect x="1870.138" y="574.926" width="4" height="2" fill="#FAFAFA" style="stroke:#000;stroke-width:0.5;"/><text x="1712.901" y="595.528" fill="#000" font-size="12" textLength="93.141">libpocketsphinx</text><text x="1712.901" y="609.66" fill="#000" font-size="12" textLength="147.779">(acoustic scoring, search:</text><text x="1712.901" y="623.793" fill="#000" font-size="12" textLength="154.236">fwdtree, fwdflat, bestpath)</text></g><!--entity LMC--><g class="entity" data-qualified-name="PocketSphinx .decoder..LMC" id="ent0011" data-source-line="15"><rect x="1886.731" y="398.726" width="188.582" height="44.133" fill="#FAFAFA" style="stroke:#000;stroke-width:0.5;" rx="2.5" ry="2.5"/><rect x="2055.314" y="403.726" width="15" height="10" fill="#FAFAFA" style="stroke:#000;stroke-width:0.5;"/><rect x="2053.314" y="405.726" width="4" height="2" fill="#FAFAFA" style="stroke:#000;stroke-width:0.5;"/><rect x="2053.314" y="409.726" width="4" height="2" fill="#FAFAFA" style="stroke:#000;stroke-width:0.5;"/><text x="1901.731" y="430.328" fill="#000" font-size="12" textLength="148.582">pocketsphinx_lm_convert</text></g><!--entity SLM--><g class="entity" data-qualified-name="CMU-Cambridge SLM Toolkit .language model..SLM" id="ent0013" data-source-line="18"><rect x="2130.981" y="391.656" width="222.074" height="58.266" fill="#FAFAFA" style="stroke:#000;stroke-width:0.5;" rx="2.5" ry="2.5"/><rect x="2333.056" y="396.656" width="15" height="10" fill="#FAFAFA" style="stroke:#000;stroke-width:0.5;"/><rect x="2331.056" y="398.656" width="4" height="2" fill="#FAFAFA" style="stroke:#000;stroke-width:0.5;"/><rect x="2331.056" y="402.656" width="4" height="2" fill="#FAFAFA" style="stroke:#000;stroke-width:0.5;"/><text x="2145.981" y="423.258" fill="#000" font-size="12" textLength="182.074">text2wfreq -> wfreq2vocab -></text><text x="2145.981" y="437.39" fill="#000" font-size="12" textLength="174.328">text2idngram -> idngram2lm</text></g><!--entity WA--><g class="entity" data-qualified-name="Scoring.WA" id="ent0015" data-source-line="21"><rect x="2697.241" y="391.656" width="189.561" height="58.266" fill="#FAFAFA" style="stroke:#000;stroke-width:0.5;" rx="2.5" ry="2.5"/><rect x="2866.802" y="396.656" width="15" height="10" fill="#FAFAFA" style="stroke:#000;stroke-width:0.5;"/><rect x="2864.802" y="398.656" width="4" height="2" fill="#FAFAFA" style="stroke:#000;stroke-width:0.5;"/><rect x="2864.802" y="402.656" width="4" height="2" fill="#FAFAFA" style="stroke:#000;stroke-width:0.5;"/><text x="2712.241" y="423.258" fill="#000" font-size="12" textLength="78.393">word_align.pl</text><text x="2712.241" y="437.39" fill="#000" font-size="12" textLength="149.561">(DEC_CFG_ALIGN=builtin)</text></g><!--entity CFG--><g class="entity" data-qualified-name="CFG" id="ent0016" data-source-line="24"><ellipse cx="86.021" cy="420.796" rx="8" ry="8" fill="#F1F1F1" style="stroke:#181818;stroke-width:0.5;"/><text x="6" y="449.398" fill="#000" font-size="12" textLength="117.785">etc/sphinx_train.cfg</text><text x="6" y="463.53" fill="#000" font-size="12" textLength="160.043">(Perl: $CFG_*, $DEC_CFG_*)</text></g><!--entity FP--><g class="entity" data-qualified-name="FP" id="ent0017" data-source-line="25"><ellipse cx="1099.021" cy="600.126" rx="8" ry="8" fill="#F1F1F1" style="stroke:#181818;stroke-width:0.5;"/><text x="990.099" y="628.728" fill="#000" font-size="12" textLength="92.66">etc/feat.params</text><text x="990.099" y="642.86" fill="#000" font-size="12" textLength="217.846">(-lowerf -upperf -nfilt -feat -cmn ...)</text></g><!--entity LISTS--><g class="entity" data-qualified-name="LISTS" id="ent0018" data-source-line="26"><ellipse cx="2550.021" cy="420.796" rx="8" ry="8" fill="#F1F1F1" style="stroke:#181818;stroke-width:0.5;"/><text x="2445.414" y="449.398" fill="#000" font-size="12" textLength="200.678">etc/&lt;db>_*.fileids / .transcription</text><text x="2445.414" y="463.53" fill="#000" font-size="12" textLength="209.215">&lt;db>.dic  &lt;db>.filler  &lt;db>.phone</text></g><!--entity MFC--><g class="entity" data-qualified-name="MFC" id="ent0019" data-source-line="27"><ellipse cx="1313.021" cy="600.126" rx="8" ry="8" fill="#F1F1F1" style="stroke:#181818;stroke-width:0.5;"/><ellipse cx="1263.241" cy="623.759" rx="2.5" ry="2.5" fill="#000"/><text x="1269.741" y="628.728" fill="#000" font-size="12" textLength="98.561">.mfc feature files</text></g><!--entity AM--><g class="entity" data-qualified-name="AM" id="ent0020" data-source-line="28"><ellipse cx="1537.021" cy="600.126" rx="8" ry="8" fill="#F1F1F1" style="stroke:#181818;stroke-width:0.5;"/><text x="1418.146" y="628.728" fill="#000" font-size="12" textLength="237.75">model_parameters/&lt;db>.cd_cont_&lt;N>/</text><text x="1418.146" y="642.86" fill="#000" font-size="12" textLength="230.063">mdef means variances mixture_weights</text><text x="1418.146" y="656.993" fill="#000" font-size="12" textLength="184.324">transition_matrices feat.params</text></g><!--entity LM--><g class="entity" data-qualified-name="LM" id="ent0021" data-source-line="29"><ellipse cx="2177.021" cy="600.126" rx="8" ry="8" fill="#F1F1F1" style="stroke:#181818;stroke-width:0.5;"/><text x="2114.889" y="628.728" fill="#000" font-size="12" textLength="124.266">ARPA / DMP / BIN LM</text></g><g class="entity" data-qualified-name="GMN40" id="ent0041" data-source-line="51"><path d="M66.061,716.126 L66.061,782.657 A0,0 0 0 0 66.061,782.657 L539.985,782.657 A0,0 0 0 0 539.985,782.657 L539.985,726.126 L529.985,716.126 L307.021,716.126 L303.021,629.516 L299.021,716.126 L66.061,716.126 A0,0 0 0 0 66.061,716.126" style="stroke:#555;stroke-width:0.5;" fill="#FFFFF0"/><path d="M529.985,716.126 L529.985,726.126 L539.985,726.126 L529.985,716.126" style="stroke:#555;stroke-width:0.5;" fill="#FFFFF0"/><text x="72.061" y="732.728" fill="#000" font-size="12" textLength="410.221">Parallelism lives here. CFG_NPART training slices and DEC_CFG_NPART</text><text x="72.061" y="746.86" fill="#000" font-size="12" textLength="416.918">decode slices become Queue jobs. Default CFG_QUEUE_TYPE is "Queue"</text><text x="72.061" y="760.993" fill="#000" font-size="12" textLength="275.426">(run inline, serial); "Queue::POSIX" forks locally;</text><text x="72.061" y="775.126" fill="#000" font-size="12" textLength="452.924">"Queue::PBS" submits each job with qsub. No Slurm backend exists upstream.</text></g><!--link STCLI to PERL--><g class="link" data-entity-1="ent0007" data-entity-2="ent0002" id="lnk22" data-source-line="31" data-link-type="dependency"><path d="M821.021,136.326 C821.021,157.206 821.021,180.886 821.021,204.486" style="stroke:#000;stroke-width:1;" fill="none" id="STCLI-to-PERL"/><polygon points="821.021,209.486,825.021,200.486,821.021,204.486,817.021,200.486,821.021,209.486" fill="#000" style="stroke:#000;stroke-width:1;stroke-linejoin:miter;stroke-miterlimit:10;"/><text x="822.021" y="177.561" fill="#000" font-size="11" textLength="101.401">runs steps in order</text></g><!--link PERL to STLIB--><g class="link" data-entity-1="ent0002" data-entity-2="ent0003" id="lnk23" data-source-line="32" data-link-type="dependency"><path d="M690.721,273.956 C609.141,289.016 503.001,313.576 414.021,350.656 C396.941,357.776 383.749,364.744 367.889,374.514" style="stroke:#000;stroke-width:1;" fill="none" id="PERL-to-STLIB"/><polygon points="363.631,377.136,373.392,375.821,367.889,374.514,369.196,369.01,363.631,377.136" fill="#000" style="stroke:#000;stroke-width:1;stroke-linejoin:miter;stroke-miterlimit:10;"/></g><!--link STLIB to Q--><g class="link" data-entity-1="ent0003" data-entity-2="ent0004" id="lnk24" data-source-line="33" data-link-type="dependency"><path d="M303.021,464.266 C303.021,497.156 303.021,536.816 303.021,565.556" style="stroke:#000;stroke-width:1;" fill="none" id="STLIB-to-Q"/><polygon points="303.021,570.556,307.021,561.556,303.021,565.556,299.021,561.556,303.021,570.556" fill="#000" style="stroke:#000;stroke-width:1;stroke-linejoin:miter;stroke-miterlimit:10;"/><text x="304.021" y="512.761" fill="#000" font-size="11" textLength="149.848">LaunchScript -> submit_job</text></g><!--link PERL to CT--><g class="link" data-entity-1="ent0002" data-entity-2="ent0005" id="lnk25" data-source-line="34" data-link-type="dependency"><path d="M754.321,296.836 C719.251,319.266 680.284,344.183 643.724,367.553" style="stroke:#000;stroke-width:1;" fill="none" id="PERL-to-CT"/><polygon points="639.511,370.246,649.249,368.769,643.724,367.553,644.94,362.028,639.511,370.246" fill="#000" style="stroke:#000;stroke-width:1;stroke-linejoin:miter;stroke-miterlimit:10;"/><text x="708.031" y="338.091" fill="#000" font-size="11" textLength="44.258">RunTool</text></g><!--link PERL to PY--><g class="link" data-entity-1="ent0002" data-entity-2="ent0006" id="lnk26" data-source-line="35" data-link-type="dependency"><path d="M825.661,296.836 C828.601,323.956 831.842,353.695 834.622,379.315" style="stroke:#000;stroke-width:1;" fill="none" id="PERL-to-PY"/><polygon points="835.161,384.286,838.167,374.907,834.622,379.315,830.214,375.77,835.161,384.286" fill="#000" style="stroke:#000;stroke-width:1;stroke-linejoin:miter;stroke-miterlimit:10;"/><text x="831.021" y="338.091" fill="#000" font-size="11" textLength="92.694">01/02 via python</text></g><!--link PERL to CFG--><g class="link" data-entity-1="ent0002" data-entity-2="ent0016" id="lnk27" data-source-line="36" data-link-type="dependency"><path d="M690.401,258.366 C560.481,266.146 357.361,288.236 193.021,350.656 C152.911,365.896 115.978,394.54 98.588,409.07" style="stroke:#000;stroke-width:1;stroke-dasharray:7,7;" fill="none" id="PERL-to-CFG"/><polygon points="94.751,412.276,104.223,409.575,98.588,409.07,99.093,403.436,94.751,412.276" fill="#000" style="stroke:#000;stroke-width:1;stroke-linejoin:miter;stroke-miterlimit:10;"/><text x="259.061" y="338.091" fill="#000" font-size="11" textLength="38.188">require</text></g><!--link PERL to LISTS--><g class="link" data-entity-1="ent0002" data-entity-2="ent0018" id="lnk28" data-source-line="37" data-link-type="dependency"><path d="M951.681,257.266 C1273.951,265.656 2100.111,292.346 2369.021,350.656 C2438.051,365.626 2511.157,400.324 2536.797,413.114" style="stroke:#000;stroke-width:1;stroke-dasharray:7,7;" fill="none" id="PERL-to-LISTS"/><polygon points="2541.271,415.346,2535.003,407.749,2536.797,413.114,2531.432,414.908,2541.271,415.346" fill="#000" style="stroke:#000;stroke-width:1;stroke-linejoin:miter;stroke-miterlimit:10;"/></g><!--link CT to FP--><g class="link" data-entity-1="ent0005" data-entity-2="ent0017" id="lnk29" data-source-line="38" data-link-type="dependency"><path d="M692.201,468.206 C698.211,470.166 704.171,472.086 710.021,473.926 C823.091,509.456 854.861,506.796 967.021,545.126 C1014.351,561.296 1064.616,583.504 1085.646,593.024" style="stroke:#000;stroke-width:1;stroke-dasharray:7,7;" fill="none" id="CT-to-FP"/><polygon points="1090.201,595.086,1083.652,587.73,1085.646,593.024,1080.353,595.018,1090.201,595.086" fill="#000" style="stroke:#000;stroke-width:1;stroke-linejoin:miter;stroke-miterlimit:10;"/></g><!--link CT to MFC--><g class="link" data-entity-1="ent0005" data-entity-2="ent0019" id="lnk30" data-source-line="39" data-link-type="dependency"><path d="M692.331,469.306 C698.281,470.966 704.191,472.516 710.021,473.926 C938.051,529.006 1013.851,461.496 1233.021,545.126 C1261.831,556.116 1286.785,575.917 1300.665,588.037" style="stroke:#000;stroke-width:1;stroke-dasharray:7,7;" fill="none" id="CT-to-MFC"/><polygon points="1304.431,591.326,1300.283,582.393,1300.665,588.037,1295.021,588.419,1304.431,591.326" fill="#000" style="stroke:#000;stroke-width:1;stroke-linejoin:miter;stroke-miterlimit:10;"/><text x="1127.881" y="512.761" fill="#000" font-size="11" textLength="95.02">bw reads features</text></g><!--link CT to AM--><g class="link" data-entity-1="ent0005" data-entity-2="ent0020" id="lnk31" data-source-line="40" data-link-type="dependency"><path d="M692.191,469.916 C698.181,471.416 704.141,472.766 710.021,473.926 C937.921,519.026 1002.621,464.426 1232.021,501.126 C1305.691,512.906 1323.041,522.146 1394.021,545.126 C1445.521,561.806 1501.13,584.279 1523.47,593.499" style="stroke:#000;stroke-width:1;stroke-dasharray:7,7;" fill="none" id="CT-to-AM"/><polygon points="1528.091,595.406,1521.298,588.275,1523.47,593.499,1518.246,595.67,1528.091,595.406" fill="#000" style="stroke:#000;stroke-width:1;stroke-linejoin:miter;stroke-miterlimit:10;"/><text x="1301.431" y="512.761" fill="#000" font-size="11" textLength="32.006">writes</text></g><!--link PERL to PSB--><g class="link" data-entity-1="ent0002" data-entity-2="ent0009" id="lnk32" data-source-line="41" data-link-type="dependency"><path d="M951.401,276.876 C1152.031,311.776 1525.505,376.739 1689.255,405.219" style="stroke:#000;stroke-width:1;" fill="none" id="PERL-to-PSB"/><polygon points="1694.181,406.076,1686,400.593,1689.255,405.219,1684.629,408.475,1694.181,406.076" fill="#000" style="stroke:#000;stroke-width:1;stroke-linejoin:miter;stroke-miterlimit:10;"/><text x="1298.021" y="338.091" fill="#000" font-size="11" textLength="108.872">decode/psdecode.pl</text></g><!--link PSB to LIBPS--><g class="link" data-entity-1="ent0009" data-entity-2="ent0010" id="lnk33" data-source-line="42" data-link-type="dependency"><path d="M1775.671,443.186 C1779.381,473.026 1785.526,522.584 1789.996,558.604" style="stroke:#000;stroke-width:1;" fill="none" id="PSB-to-LIBPS"/><polygon points="1790.611,563.566,1793.473,554.142,1789.996,558.604,1785.534,555.127,1790.611,563.566" fill="#000" style="stroke:#000;stroke-width:1;stroke-linejoin:miter;stroke-miterlimit:10;"/></g><!--link PSB to AM--><g class="link" data-entity-1="ent0009" data-entity-2="ent0020" id="lnk34" data-source-line="43" data-link-type="dependency"><path d="M1744.551,443.186 C1691.101,483.346 1582.188,565.182 1549.848,589.492" style="stroke:#000;stroke-width:1;stroke-dasharray:7,7;" fill="none" id="PSB-to-AM"/><polygon points="1545.851,592.496,1555.449,590.286,1549.848,589.492,1550.642,583.891,1545.851,592.496" fill="#000" style="stroke:#000;stroke-width:1;stroke-linejoin:miter;stroke-miterlimit:10;"/></g><!--link PSB to LM--><g class="link" data-entity-1="ent0009" data-entity-2="ent0021" id="lnk35" data-source-line="44" data-link-type="dependency"><path d="M1808.691,443.236 C1826.441,453.366 1848.441,465.126 1869.021,473.926 C1964.301,514.646 1997.081,501.406 2091.021,545.126 C2121.071,559.106 2149.326,578.724 2164.366,589.724" style="stroke:#000;stroke-width:1;stroke-dasharray:7,7;" fill="none" id="PSB-to-LM"/><polygon points="2168.401,592.676,2163.498,584.134,2164.366,589.724,2158.776,590.592,2168.401,592.676" fill="#000" style="stroke:#000;stroke-width:1;stroke-linejoin:miter;stroke-miterlimit:10;"/></g><!--link PSB to MFC--><g class="link" data-entity-1="ent0009" data-entity-2="ent0019" id="lnk36" data-source-line="45" data-link-type="dependency"><path d="M1694.401,440.636 C1616.021,460.956 1493.341,496.986 1394.021,545.126 C1366.041,558.686 1340.369,577.565 1325.939,588.855" style="stroke:#000;stroke-width:1;stroke-dasharray:7,7;" fill="none" id="PSB-to-MFC"/><polygon points="1322.001,591.936,1331.555,589.541,1325.939,588.855,1326.625,583.24,1322.001,591.936" fill="#000" style="stroke:#000;stroke-width:1;stroke-linejoin:miter;stroke-miterlimit:10;"/></g><!--link PERL to WA--><g class="link" data-entity-1="ent0002" data-entity-2="ent0015" id="lnk37" data-source-line="46" data-link-type="dependency"><path d="M951.511,260.156 C1206.981,271.926 1791.041,299.396 2282.021,326.456 C2458.971,336.216 2511.081,297.126 2680.021,350.656 C2707.681,359.426 2731.393,373.599 2752.373,388.589" style="stroke:#000;stroke-width:1;" fill="none" id="PERL-to-WA"/><polygon points="2756.441,391.496,2751.444,383.009,2752.373,388.589,2746.793,389.519,2756.441,391.496" fill="#000" style="stroke:#000;stroke-width:1;stroke-linejoin:miter;stroke-miterlimit:10;"/><text x="2642.591" y="338.091" fill="#000" font-size="11" textLength="69.497">compute_acc</text></g><!--link SLM to LM--><g class="link" data-entity-1="ent0013" data-entity-2="ent0021" id="lnk38" data-source-line="47" data-link-type="dependency"><path d="M2231.581,450.286 C2216.291,491.996 2190.391,562.641 2181.551,586.771" style="stroke:#000;stroke-width:1;stroke-dasharray:7,7;" fill="none" id="SLM-to-LM"/><polygon points="2179.831,591.466,2186.683,584.391,2181.551,586.771,2179.172,581.639,2179.831,591.466" fill="#000" style="stroke:#000;stroke-width:1;stroke-linejoin:miter;stroke-miterlimit:10;"/><text x="2212.471" y="512.761" fill="#000" font-size="11" textLength="62.541">writes .arpa</text></g><!--link LMC to LM--><g class="link" data-entity-1="ent0011" data-entity-2="ent0021" id="lnk39" data-source-line="48" data-link-type="dependency"><path d="M2004.661,443.186 C2048.441,482.796 2136.554,562.511 2164.834,588.101" style="stroke:#000;stroke-width:1;stroke-dasharray:7,7;" fill="none" id="LMC-to-LM"/><polygon points="2168.541,591.456,2164.552,582.451,2164.834,588.101,2159.184,588.383,2168.541,591.456" fill="#000" style="stroke:#000;stroke-width:1;stroke-linejoin:miter;stroke-miterlimit:10;"/></g><?plantuml-src VLPHR-Cs37xth-22UyWLYTDrJylT2gHfU-YGP6cTeYiGm91bEj4gIpv9RbeC---Z9AT9UyDU754YFrBaHoe_2SLbMoAawIYtxbLYAjfQ9auuYJ2TtqFMR8Lw0OCL6bGSn-2qbdpBX0AkwqOhLCu2KoMuBGf3cyePnfrDaeRn9xP1w4MGbV56VSPrQvtWKEiI9JY_Y-Pp3_vEu009lIKQ2ThmBLhISKAhjRBSYCRPqMAHMeVDo4hsZFb9siYrwf-UfizeHFLAjqdXrzEKuD5XcGlbq3HQ1f31MfN8oNKq9bDopImih-vcxmCuYdeydcfLYSrQlTkyTy8xdkdD0EvQjQBCX4KMmYHFCzOglkr4U632NMjp4XrcgzdDnNkFjossE83mCnul_yXk_YIGlNYHlHtzhek0SVlUVXgAOw5V23Nwl5R5RW1Acte0GWcNr-A5Dkgdl2wnoZVeSq5IHOaPG25BPv2yDwPL69TEKEwPGz8ZekJU4zcp9cSbynUo8Hc_v4oAJGTcpoogilMAyJIlFBlI4EvqzQ74hswhbIT2Az6k5Q_RQ9JAaWtW8DPIEagq8jnN0kQYUUsgzlWUSK-GQ1UuHNQTd-diPWmMNTl02EYMz1rQy4JQLuGqadyEl5rg_eIkQu5-fCr_CBK9Qjrr2-RuDiQMVIYl5CMnAWNsrWkMQoCKqSWY8ygFrwhQTVMWHLSXAaR3t3O6I-HPPlyJXwofNeeQmaNr-VJuPjJQmoch2oDA4hFP73nvduI3lcHgqtgbq9y_tjRXYplRLGQ_m_0SmkBiMNDMaBXMuLIKQcDOxS-xvPciOufdy-CmidZj7tpij2aZgs9hNrvDy-drjtmok_cs-AreXNH2nJmyJ0Wm2IrUCKwOw7XN_ZpKF-NLndE0niaOFdcKam5ysYDspKZBZnWLCfSsZ88dPlQ7Kk_e58PjquHV6WVImT1hmP3NofCyObqlFq9zBOjpcb9aWQAqHBkK8kk6MPXhNY4jYGSGLgGeqNH2GzJ5hkJPAZl6FadhYeCFeJK87ju6nVdrz5Wj538FLw5vQ6o89-Mb9uZBloxEHzIwD1AWHeeAdfaHZ4Qz1HeO7ZdVeTXi7QKXX2ryp7dDd15UwIXFmVbaVknxShUSq8KlvqlwNjmiY8WT7vCaz1iCYIL--CBOzsJiHqi3YsO_TLiIZhnEd9VX6-HRCZYUhvvjjYrg6dH_wU9WDrsHOZUT3xlBHzez_NbqUWRFWa4J9aGyJjDppmSV3tvlXS73Tgm08Ng1wjojAD-aNUp8W9LsNn2xFvxCwNHdXAEjGm3P1UrsJr5ZuuBOdlW3hn0Rt4iHusqvEonzeTyG7oO4w9keTPWppXFVrj7WpJ-ap3GieMcmXqgKTWY5TaxNeAlmf2ofciH0AMmDKZoJsPPU_zHd9Lyi9tUh-6fJvuALWGJ-_T-tLD0Wb7YblKP1Ketn0GCga4tX4YlMKXDvezlxg_khVFMul09XkvUmHo1zFwU5alGVmGz7OgRy_AKxxvx87bJQF5cGD8IaVFr2Lht3czdhI6416Tzwpx0JRWlVQJk5XOPCjgQ6WaOIFLo0ByAIRjlGdmvaTPhuJP-YVm40?></g></svg>