<svg xmlns="http://www.w3.org/2000/svg" xmlns:xlink="http://www.w3.org/1999/xlink" version="1.1" data-diagram-type="SEQUENCE" style="width:1562px;height:762px;background:#FFFFFF;" width="1562px" height="762px" viewBox="0 0 1562 762" zoomAndPan="magnify" preserveAspectRatio="none" contentStyleType="text/css"><?plantuml 1.2026.8?><defs/><g font-family="sans-serif" lengthAdjust="spacing"><g class="title" data-source-line="2"><text x="523.628" y="29.502" fill="#000" font-size="15" textLength="512.944" font-weight="700">CMU Sphinx reference: decode and score (scripts/decode/slave.pl)</text></g><rect x="355.695" y="147.754" width="1086.409" height="278.639" fill="none" style="stroke:#444;stroke-width:1.5;"/><g><title>caller</title><rect x="29.153" y="108.799" width="8" height="582.145" fill="#000" fill-opacity="0"/><line x1="32.653" y1="108.799" x2="32.653" y2="690.943" style="stroke:#000;stroke-width:0.5;stroke-dasharray:5,5;"/></g><g><title>decode.slave.pl</title><rect x="368.195" y="108.799" width="8" height="582.145" fill="#000" fill-opacity="0"/><line x1="371.695" y1="108.799" x2="371.695" y2="690.943" style="stroke:#000;stroke-width:0.5;stroke-dasharray:5,5;"/></g><g><title>Queue backend</title><rect x="629.023" y="108.799" width="8" height="582.145" fill="#000" fill-opacity="0"/><line x1="632.523" y1="108.799" x2="632.523" y2="690.943" style="stroke:#000;stroke-width:0.5;stroke-dasharray:5,5;"/></g><g><title>psdecode.pl</title><rect x="772.417" y="108.799" width="8" height="582.145" fill="#000" fill-opacity="0"/><line x1="775.917" y1="108.799" x2="775.917" y2="690.943" style="stroke:#000;stroke-width:0.5;stroke-dasharray:5,5;"/></g><g><title>pocketsphinx_batch</title><rect x="1127.588" y="108.799" width="8" height="582.145" fill="#000" fill-opacity="0"/><line x1="1131.088" y1="108.799" x2="1131.088" y2="690.943" style="stroke:#000;stroke-width:0.5;stroke-dasharray:5,5;"/></g><g><title>result.</title><rect x="1422.604" y="108.799" width="8" height="582.145" fill="#000" fill-opacity="0"/><line x1="1426.104" y1="108.799" x2="1426.104" y2="690.943" style="stroke:#000;stroke-width:0.5;stroke-dasharray:5,5;"/></g><g><title>word_align.pl</title><rect x="1501.505" y="108.799" width="8" height="582.145" fill="#000" fill-opacity="0"/><line x1="1505.005" y1="108.799" x2="1505.005" y2="690.943" style="stroke:#000;stroke-width:0.5;stroke-dasharray:5,5;"/></g><rect x="10" y="79.666" width="45.307" height="28.133" fill="#F6F6F6" style="stroke:#000;stroke-width:0.5;" rx="2.5" ry="2.5"/><text x="17" y="98.268" fill="#000" font-size="12" textLength="31.307">caller</text><rect x="318.587" y="79.666" width="106.215" height="28.133" fill="#F6F6F6" style="stroke:#000;stroke-width:0.5;" rx="2.5" ry="2.5"/><text x="325.587" y="98.268" fill="#000" font-size="12" textLength="92.215">decode/slave.pl</text><rect x="580.318" y="79.666" width="104.41" height="28.133" fill="#F6F6F6" style="stroke:#000;stroke-width:0.5;" rx="2.5" ry="2.5"/><text x="587.318" y="98.268" fill="#000" font-size="12" textLength="90.41">Queue backend</text><rect x="694.729" y="65.533" width="162.377" height="42.266" fill="#F6F6F6" style="stroke:#000;stroke-width:0.5;" rx="2.5" ry="2.5"/><text x="740.676" y="84.135" fill="#000" font-size="12" textLength="70.482">psdecode.pl</text><text x="701.729" y="98.268" fill="#000" font-size="12" textLength="148.377">part i of DEC_CFG_NPART</text><rect x="1065.632" y="79.666" width="130.912" height="28.133" fill="#F6F6F6" style="stroke:#000;stroke-width:0.5;" rx="2.5" ry="2.5"/><text x="1072.632" y="98.268" fill="#000" font-size="12" textLength="116.912">pocketsphinx_batch</text><text x="1403.398" y="106.268" fill="#000" font-size="12" textLength="39.41">result/</text><path d="M1408.104,58.666 C1408.104,48.666 1426.104,48.666 1426.104,48.666 C1426.104,48.666 1444.104,48.666 1444.104,58.666 L1444.104,84.666 C1444.104,94.666 1426.104,94.666 1426.104,94.666 C1426.104,94.666 1408.104,94.666 1408.104,84.666 L1408.104,58.666" style="stroke:#000;stroke-width:0.5;" fill="#FFF"/><path d="M1408.104,58.666 C1408.104,68.666 1426.104,68.666 1426.104,68.666 C1426.104,68.666 1444.104,68.666 1444.104,58.666" style="stroke:#000;stroke-width:0.5;" fill="none"/><rect x="1458.809" y="79.666" width="92.393" height="28.133" fill="#F6F6F6" style="stroke:#000;stroke-width:0.5;" rx="2.5" ry="2.5"/><text x="1465.809" y="98.268" fill="#000" font-size="12" textLength="78.393">word_align.pl</text><rect x="10" y="690.943" width="45.307" height="28.133" fill="#F6F6F6" style="stroke:#000;stroke-width:0.5;" rx="2.5" ry="2.5"/><text x="17" y="709.545" fill="#000" font-size="12" textLength="31.307">caller</text><rect x="318.587" y="690.943" width="106.215" height="28.133" fill="#F6F6F6" style="stroke:#000;stroke-width:0.5;" rx="2.5" ry="2.5"/><text x="325.587" y="709.545" fill="#000" font-size="12" textLength="92.215">decode/slave.pl</text><rect x="580.318" y="690.943" width="104.41" height="28.133" fill="#F6F6F6" style="stroke:#000;stroke-width:0.5;" rx="2.5" ry="2.5"/><text x="587.318" y="709.545" fill="#000" font-size="12" textLength="90.41">Queue backend</text><rect x="694.729" y="690.943" width="162.377" height="42.266" fill="#F6F6F6" style="stroke:#000;stroke-width:0.5;" rx="2.5" ry="2.5"/><text x="740.676" y="709.545" fill="#000" font-size="12" textLength="70.482">psdecode.pl</text><text x="701.729" y="723.678" fill="#000" font-size="12" textLength="148.377">part i of DEC_CFG_NPART</text><rect x="1065.632" y="690.943" width="130.912" height="28.133" fill="#F6F6F6" style="stroke:#000;stroke-width:0.5;" rx="2.5" ry="2.5"/><text x="1072.632" y="709.545" fill="#000" font-size="12" textLength="116.912">pocketsphinx_batch</text><text x="1403.398" y="702.545" fill="#000" font-size="12" textLength="39.41">result/</text><path d="M1408.104,715.076 C1408.104,705.076 1426.104,705.076 1426.104,705.076 C1426.104,705.076 1444.104,705.076 1444.104,715.076 L1444.104,741.076 C1444.104,751.076 1426.104,751.076 1426.104,751.076 C1426.104,751.076 1408.104,751.076 1408.104,741.076 L1408.104,715.076" style="stroke:#000;stroke-width:0.5;" fill="#FFF"/><path d="M1408.104,715.076 C1408.104,725.076 1426.104,725.076 1426.104,725.076 C1426.104,725.076 1444.104,725.076 1444.104,715.076" style="stroke:#000;stroke-width:0.5;" fill="none"/><rect x="1458.809" y="690.943" width="92.393" height="28.133" fill="#F6F6F6" style="stroke:#000;stroke-width:0.5;" rx="2.5" ry="2.5"/><text x="1465.809" y="709.545" fill="#000" font-size="12" textLength="78.393">word_align.pl</text><polygon points="359.695,131.754,369.695,135.754,359.695,139.754,363.695,135.754" fill="#000" style="stroke:#000;stroke-width:1;stroke-linejoin:miter;stroke-miterlimit:10;"/><line x1="32.653" y1="135.754" x2="365.695" y2="135.754" style="stroke:#000;stroke-width:1;"/><text x="39.653" y="131.434" fill="#000" font-size="11" textLength="108.743">perl decode/slave.pl</text><path d="M355.695,147.754 L427.876,147.754 L427.876,153.887 L417.876,163.887 L355.695,163.887 L355.695,147.754" style="stroke:#666;stroke-width:1.5;" fill="#EEE"/><rect x="355.695" y="147.754" width="1086.409" height="278.639" fill="none" style="stroke:#444;stroke-width:1.5;"/><text x="370.695" y="160.355" fill="#000" font-size="12" textLength="27.182" font-weight="700">loop</text><text x="442.876" y="161.355" fill="#000" font-size="12" textLength="147.732" font-weight="700">[i = 1..DEC_CFG_NPART]</text><polygon points="620.523,188.842,630.523,192.842,620.523,196.842,624.523,192.842" fill="#000" style="stroke:#000;stroke-width:1;stroke-linejoin:miter;stroke-miterlimit:10;"/><line x1="371.695" y1="192.842" x2="626.523" y2="192.842" style="stroke:#000;stroke-width:1;"/><text x="378.695" y="188.521" fill="#000" font-size="11" textLength="210.778">LaunchScript decode [psdecode.pl, i, N]</text><polygon points="763.917,215.797,773.917,219.797,763.917,223.797,767.917,219.797" fill="#000" style="stroke:#000;stroke-width:1;stroke-linejoin:miter;stroke-miterlimit:10;"/><line x1="632.523" y1="219.797" x2="769.917" y2="219.797" style="stroke:#000;stroke-width:1;"/><text x="639.523" y="215.477" fill="#000" font-size="11" textLength="18.154">run</text><line x1="775.917" y1="246.752" x2="817.917" y2="246.752" style="stroke:#000;stroke-width:1;"/><line x1="817.917" y1="246.752" x2="817.917" y2="259.752" style="stroke:#000;stroke-width:1;"/><line x1="776.917" y1="259.752" x2="817.917" y2="259.752" style="stroke:#000;stroke-width:1;"/><polygon points="786.917,255.752,776.917,259.752,786.917,263.752,782.917,259.752" fill="#000" style="stroke:#000;stroke-width:1;stroke-linejoin:miter;stroke-miterlimit:10;"/><text x="782.917" y="242.432" fill="#000" font-size="11" textLength="218.985">ctloffset / ctlcount = slice i of test fileids</text><polygon points="1119.088,321.572,1129.088,325.572,1119.088,329.572,1123.088,325.572" fill="#000" style="stroke:#000;stroke-width:1;stroke-linejoin:miter;stroke-miterlimit:10;"/><line x1="775.917" y1="325.572" x2="1125.088" y2="325.572" style="stroke:#000;stroke-width:1;"/><text x="782.917" y="282.387" fill="#000" font-size="11" textLength="154.908">RunTool pocketsphinx_batch</text><text x="782.917" y="295.342" fill="#000" font-size="11" textLength="298.982">-hmm final AM, -lm DEC_CFG_LANGUAGEMODEL, -dict,</text><text x="782.917" y="308.297" fill="#000" font-size="11" textLength="323.206">-feat CFG_FEATURE, -agc/-cmn/-varnorm from DEC_CFG_*,</text><text x="782.917" y="321.252" fill="#000" font-size="11" textLength="331.171">-beam -wbeam -lw -wip ..., -ctl/-ctloffset/-ctlcount, -cepdir</text><line x1="1131.088" y1="378.438" x2="1173.088" y2="378.438" style="stroke:#000;stroke-width:1;"/><line x1="1173.088" y1="378.438" x2="1173.088" y2="391.438" style="stroke:#000;stroke-width:1;"/><line x1="1132.088" y1="391.438" x2="1173.088" y2="391.438" style="stroke:#000;stroke-width:1;"/><polygon points="1142.088,387.438,1132.088,391.438,1142.088,395.438,1138.088,391.438" fill="#000" style="stroke:#000;stroke-width:1;stroke-linejoin:miter;stroke-miterlimit:10;"/><text x="1138.088" y="348.207" fill="#000" font-size="11" textLength="281.016">per utterance: read .mfc, compute dynamic features,</text><text x="1138.088" y="361.162" fill="#000" font-size="11" textLength="191.684">apply LDA/MLLT if model has them,</text><text x="1138.088" y="374.117" fill="#000" font-size="11" textLength="254.789">Viterbi beam search (fwdtree, fwdflat, bestpath)</text><polygon points="1414.104,414.393,1424.104,418.393,1414.104,422.393,1418.104,418.393" fill="#000" style="stroke:#000;stroke-width:1;stroke-linejoin:miter;stroke-miterlimit:10;"/><line x1="1131.088" y1="418.393" x2="1420.104" y2="418.393" style="stroke:#000;stroke-width:1;"/><text x="1138.088" y="414.072" fill="#000" font-size="11" textLength="215.402">&lt;db>-i-N.match  "WORDS (fileid score)"</text><polygon points="620.523,455.348,630.523,459.348,620.523,463.348,624.523,459.348" fill="#000" style="stroke:#000;stroke-width:1;stroke-linejoin:miter;stroke-miterlimit:10;"/><line x1="371.695" y1="459.348" x2="626.523" y2="459.348" style="stroke:#000;stroke-width:1;"/><text x="378.695" y="455.027" fill="#000" font-size="11" textLength="154.215">WaitForScript all decode jobs</text><polygon points="1414.104,495.258,1424.104,499.258,1414.104,503.258,1418.104,499.258" fill="#000" style="stroke:#000;stroke-width:1;stroke-linejoin:miter;stroke-miterlimit:10;"/><line x1="371.695" y1="499.258" x2="1420.104" y2="499.258" style="stroke:#000;stroke-width:1;"/><text x="378.695" y="481.982" fill="#000" font-size="11" textLength="149.843">concat_hyp -> &lt;db>.match</text><text x="378.695" y="494.938" fill="#000" font-size="11" textLength="125.528">(strip scores and paths)</text><line x1="371.695" y1="539.168" x2="413.695" y2="539.168" style="stroke:#000;stroke-width:1;"/><line x1="413.695" y1="539.168" x2="413.695" y2="552.168" style="stroke:#000;stroke-width:1;"/><line x1="372.695" y1="552.168" x2="413.695" y2="552.168" style="stroke:#000;stroke-width:1;"/><polygon points="382.695,548.168,372.695,552.168,382.695,556.168,378.695,552.168" fill="#000" style="stroke:#000;stroke-width:1;stroke-linejoin:miter;stroke-miterlimit:10;"/><text x="378.695" y="521.893" fill="#000" font-size="11" textLength="209.043">condition_text(hyp), condition_text(ref)</text><text x="378.695" y="534.848" fill="#000" font-size="11" textLength="246.829">(upper-case unless CFG_CASEDSYMBOLS=yes)</text><polygon points="1493.005,575.123,1503.005,579.123,1493.005,583.123,1497.005,579.123" fill="#000" style="stroke:#000;stroke-width:1;stroke-linejoin:miter;stroke-miterlimit:10;"/><line x1="371.695" y1="579.123" x2="1499.005" y2="579.123" style="stroke:#000;stroke-width:1;"/><text x="378.695" y="574.803" fill="#000" font-size="11" textLength="99.403">align_hyp(ref, hyp)</text><polygon points="382.695,615.033,372.695,619.033,382.695,623.033,378.695,619.033" fill="#000" style="stroke:#000;stroke-width:1;stroke-linejoin:miter;stroke-miterlimit:10;"/><line x1="376.695" y1="619.033" x2="1504.005" y2="619.033" style="stroke:#000;stroke-width:1;stroke-dasharray:2,2;"/><text x="388.695" y="601.758" fill="#000" font-size="11" textLength="198.317">"TOTAL Words: n Correct: c Errors: e"</text><text x="388.695" y="614.713" fill="#000" font-size="11" textLength="276.595">"TOTAL Percent correct = .. Error = .. Accuracy = .."</text><polygon points="1414.104,641.988,1424.104,645.988,1414.104,649.988,1418.104,645.988" fill="#000" style="stroke:#000;stroke-width:1;stroke-linejoin:miter;stroke-miterlimit:10;"/><line x1="371.695" y1="645.988" x2="1420.104" y2="645.988" style="stroke:#000;stroke-width:1;"/><text x="378.695" y="641.668" fill="#000" font-size="11" textLength="248.123">&lt;db>.align (slave.pl writes word_align output)</text><polygon points="43.653,668.943,33.653,672.943,43.653,676.943,39.653,672.943" fill="#000" style="stroke:#000;stroke-width:1;stroke-linejoin:miter;stroke-miterlimit:10;"/><line x1="37.653" y1="672.943" x2="370.695" y2="672.943" style="stroke:#000;stroke-width:1;"/><text x="49.653" y="668.623" fill="#000" font-size="11" textLength="315.042">SENTENCE ERROR / WORD ERROR RATE lines (stdout + log)</text><?plantuml-src PLHDSvim4BtpAxO-sQs1wJNJP8PYaek_0auzdQRZaSKIr0g9aKGT__kkm7RgzCHAk-_fxHSVXEAoAn6YADvPTvGOYQwHWHDE8gIB9oZQMgXNC5YXGSNn1ahacX1CbM2vDWXZouredOq7Jsmb-uDHAoT1q3BZ11SjKmv6d4c9PWJCGdhjUGViGuhhaCSEEuGzuxzHbNt0utL0QmSMmZyhxm41ke9PbkxI-uVTSftacnwtdhq3Qk9qjizpjsUErqDO4PJCiJsp22E3jfCkxXtvDVoWJRbZKhoei_9j4WGfX7TGm0sqQ2Iyoo-GMhSaxnO-Hz6Lm008HCX7GivPftXTzBKz5_t7FrbEGKnX-PCWZnwodX76T8hEP9ulk9EwgYmwYBtDTKUQRy5AmN4ea4Fhe18IHMdVi5vwtgcDrXB-Bz2p2kkc8PHY4fB554BPN2ezJvOFJyb3jbZDiZcvIi7Tb10LCWS-u3vBDazvHYxsmkEGDoeE_p2Zj25Aez-OFdhO7ba3uM7uo0EPegLnZGXE2SNX9SFUx1FqBcnBONm-nIKVQWLqpg5X_HmRP2L4JSMdm7NJTWwXF2hM20vUQaSzf_TPsyeZp6T9l9ZFDo0gQAZy4cfgjAkneP1lWZZt0dg95fdXDOohG-aCuXJ8g2GZJNigTCjSFRceoadKbt9_5ufm6JM-i02ZxIgV5OJlEp9is6GKqD07bydOCk7kjJcD1ctLUJn-wRqDBjHSAyxShZws_iO_D3pohCRM4NGWj_qcUs5sCc2B0LiA9xJQENnrO-AOJDzVqZzXGbnTIuKDkT-JJacqjczocXJPhFY--BgQ5xT7F7Dl4oBljyNhyXHJyEG1ESBJswFDQfFCOKkBPMz0GQgDGUv856J6Q4ENE7fMfx0r6euqr7o8ek6EeY5kC1FEEyFuiJ-DWgl2HxqI-e6T5XCEXdffuMsdGNUEHkEaFYLSaIqtsJBD8ClpLKvhvHjsEkJ99WCf555GYKl2mYUG-cNo5m00?></g></svg>