<svg xmlns="http://www.w3.org/2000/svg" xmlns:xlink="http://www.w3.org/1999/xlink" version="1.1" data-diagram-type="SEQUENCE" style="width:1671px;height:1315px;background:#FFFFFF;" width="1671px" height="1315px" viewBox="0 0 1671 1315" zoomAndPan="magnify" preserveAspectRatio="none" contentStyleType="text/css"><?plantuml 1.2026.8?><defs/><g font-family="sans-serif" lengthAdjust="spacing"><g class="title" data-source-line="2"><text x="550.846" y="29.502" fill="#000" font-size="15" textLength="567.568" font-weight="700">Pi-Gen imaging: run_pigen() message flow across host, VM and container</text></g><rect x="1086.032" y="696.033" width="428.641" height="66.088" fill="none" style="stroke:#444;stroke-width:1.5;"/><rect x="1086.032" y="780.121" width="468.162" height="79.043" fill="none" style="stroke:#444;stroke-width:1.5;"/><rect x="22.934" y="1051.895" width="754.796" height="127.131" fill="none" style="stroke:#444;stroke-width:1.5;"/><g><title>Operator</title><rect x="35.434" y="122.932" width="8" height="1107.049" fill="#000" fill-opacity="0"/><line x1="38.934" y1="122.932" x2="38.934" y2="1229.98" style="stroke:#000;stroke-width:0.5;stroke-dasharray:5,5;"/></g><g><title>build.sh</title><rect x="175.03" y="122.932" width="8" height="1107.049" fill="#000" fill-opacity="0"/><line x1="178.53" y1="122.932" x2="178.53" y2="1229.98" style="stroke:#000;stroke-width:0.5;stroke-dasharray:5,5;"/></g><g><title>_pigen-podman.sh</title><rect x="370.948" y="122.932" width="8" height="1107.049" fill="#000" fill-opacity="0"/><line x1="374.448" y1="122.932" x2="374.448" y2="1229.98" style="stroke:#000;stroke-width:0.5;stroke-dasharray:5,5;"/></g><g><title></title><rect x="369.448" y="216.797" width="10" height="976.229" fill="#FFF" style="stroke:#181818;stroke-width:1;"/></g><g><title>podman machine VM</title><rect x="638.098" y="122.932" width="8" height="1107.049" fill="#000" fill-opacity="0"/><line x1="641.598" y1="122.932" x2="641.598" y2="1229.98" style="stroke:#000;stroke-width:0.5;stroke-dasharray:5,5;"/></g><g><title>podman CLI</title><rect x="758.229" y="122.932" width="8" height="1107.049" fill="#000" fill-opacity="0"/><line x1="761.729" y1="122.932" x2="761.729" y2="1229.98" style="stroke:#000;stroke-width:0.5;stroke-dasharray:5,5;"/></g><g><title></title><rect x="756.729" y="471.393" width="10" height="487.637" fill="#FFF" style="stroke:#181818;stroke-width:1;"/></g><g><title>container pigen_work</title><rect x="879.867" y="122.932" width="8" height="1107.049" fill="#000" fill-opacity="0"/><line x1="883.367" y1="122.932" x2="883.367" y2="1229.98" style="stroke:#000;stroke-width:0.5;stroke-dasharray:5,5;"/></g><g><title></title><rect x="878.367" y="498.348" width="10" height="460.682" fill="#FFF" style="stroke:#181818;stroke-width:1;"/></g><g><title>pi-gen build.sh</title><rect x="1098.532" y="122.932" width="8" height="1107.049" fill="#000" fill-opacity="0"/><line x1="1102.032" y1="122.932" x2="1102.032" y2="1229.98" style="stroke:#000;stroke-width:0.5;stroke-dasharray:5,5;"/></g><g><title></title><rect x="1097.032" y="618.168" width="10" height="273.951" fill="#FFF" style="stroke:#181818;stroke-width:1;"/></g><g><title>pi-gen.deploy.</title><rect x="1608.228" y="122.932" width="8" height="1107.049" fill="#000" fill-opacity="0"/><line x1="1611.728" y1="122.932" x2="1611.728" y2="1229.98" style="stroke:#000;stroke-width:0.5;stroke-dasharray:5,5;"/></g><text x="10" y="120.4" fill="#000" font-size="12" textLength="51.867">Operator</text><ellipse cx="38.934" cy="57.299" rx="8" ry="8" fill="#F6F6F6" style="stroke:#000;stroke-width:0.5;"/><path d="M38.934,65.299 L38.934,92.299 M25.934,73.299 L51.934,73.299 M38.934,92.299 L25.934,107.299 M38.934,92.299 L51.934,107.299" style="stroke:#000;stroke-width:0.5;" fill="none"/><rect x="148.104" y="93.799" width="60.852" height="28.133" fill="#F6F6F6" style="stroke:#000;stroke-width:0.5;" rx="2.5" ry="2.5"/><text x="155.104" y="112.4" fill="#000" font-size="12" textLength="46.852">build.sh</text><rect x="312.1" y="79.666" width="124.695" height="42.266" fill="#F6F6F6" style="stroke:#000;stroke-width:0.5;" rx="2.5" ry="2.5"/><text x="319.1" y="98.268" fill="#000" font-size="12" textLength="110.695">_pigen-podman.sh</text><text x="341.325" y="112.4" fill="#000" font-size="12" textLength="66.246">run_pigen()</text><rect x="573.32" y="79.666" width="136.555" height="42.266" fill="#F6F6F6" style="stroke:#000;stroke-width:0.5;" rx="2.5" ry="2.5"/><text x="580.32" y="98.268" fill="#000" font-size="12" textLength="122.555">podman machine VM</text><text x="603.638" y="112.4" fill="#000" font-size="12" textLength="75.92">(macOS only)</text><rect x="719.875" y="93.799" width="83.709" height="28.133" fill="#F6F6F6" style="stroke:#000;stroke-width:0.5;" rx="2.5" ry="2.5"/><text x="726.875" y="112.4" fill="#000" font-size="12" textLength="69.709">podman CLI</text><rect x="813.584" y="79.666" width="139.566" height="42.266" fill="#F6F6F6" style="stroke:#000;stroke-width:0.5;" rx="2.5" ry="2.5"/><text x="820.584" y="98.268" fill="#000" font-size="12" textLength="125.566">container pigen_work</text><text x="856.528" y="112.4" fill="#000" font-size="12" textLength="53.678">(/pi-gen)</text><rect x="1044.565" y="79.666" width="114.934" height="42.266" fill="#F6F6F6" style="stroke:#000;stroke-width:0.5;" rx="2.5" ry="2.5"/><text x="1056.918" y="98.268" fill="#000" font-size="12" textLength="90.229">pi-gen build.sh</text><text x="1051.565" y="112.4" fill="#000" font-size="12" textLength="100.934">(inside container)</text><text x="1563.194" y="106.268" fill="#000" font-size="12" textLength="91.066">pi-gen/deploy/</text><text x="1592.113" y="120.4" fill="#000" font-size="12" textLength="33.229">(host)</text><path d="M1593.728,58.666 C1593.728,48.666 1611.728,48.666 1611.728,48.666 C1611.728,48.666 1629.728,48.666 1629.728,58.666 L1629.728,84.666 C1629.728,94.666 1611.728,94.666 1611.728,94.666 C1611.728,94.666 1593.728,94.666 1593.728,84.666 L1593.728,58.666" style="stroke:#000;stroke-width:0.5;" fill="#FFF"/><path d="M1593.728,58.666 C1593.728,68.666 1611.728,68.666 1611.728,68.666 C1611.728,68.666 1629.728,68.666 1629.728,58.666" style="stroke:#000;stroke-width:0.5;" fill="none"/><text x="10" y="1241.582" fill="#000" font-size="12" textLength="51.867">Operator</text><ellipse cx="38.934" cy="1252.613" rx="8" ry="8" fill="#F6F6F6" style="stroke:#000;stroke-width:0.5;"/><path d="M38.934,1260.613 L38.934,1287.613 M25.934,1268.613 L51.934,1268.613 M38.934,1287.613 L25.934,1302.613 M38.934,1287.613 L51.934,1302.613" style="stroke:#000;stroke-width:0.5;" fill="none"/><rect x="148.104" y="1229.98" width="60.852" height="28.133" fill="#F6F6F6" style="stroke:#000;stroke-width:0.5;" rx="2.5" ry="2.5"/><text x="155.104" y="1248.582" fill="#000" font-size="12" textLength="46.852">build.sh</text><rect x="312.1" y="1229.98" width="124.695" height="42.266" fill="#F6F6F6" style="stroke:#000;stroke-width:0.5;" rx="2.5" ry="2.5"/><text x="319.1" y="1248.582" fill="#000" font-size="12" textLength="110.695">_pigen-podman.sh</text><text x="341.325" y="1262.715" fill="#000" font-size="12" textLength="66.246">run_pigen()</text><rect x="573.32" y="1229.98" width="136.555" height="42.266" fill="#F6F6F6" style="stroke:#000;stroke-width:0.5;" rx="2.5" ry="2.5"/><text x="580.32" y="1248.582" fill="#000" font-size="12" textLength="122.555">podman machine VM</text><text x="603.638" y="1262.715" fill="#000" font-size="12" textLength="75.92">(macOS only)</text><rect x="719.875" y="1229.98" width="83.709" height="28.133" fill="#F6F6F6" style="stroke:#000;stroke-width:0.5;" rx="2.5" ry="2.5"/><text x="726.875" y="1248.582" fill="#000" font-size="12" textLength="69.709">podman CLI</text><rect x="813.584" y="1229.98" width="139.566" height="42.266" fill="#F6F6F6" style="stroke:#000;stroke-width:0.5;" rx="2.5" ry="2.5"/><text x="820.584" y="1248.582" fill="#000" font-size="12" textLength="125.566">container pigen_work</text><text x="856.528" y="1262.715" fill="#000" font-size="12" textLength="53.678">(/pi-gen)</text><rect x="1044.565" y="1229.98" width="114.934" height="42.266" fill="#F6F6F6" style="stroke:#000;stroke-width:0.5;" rx="2.5" ry="2.5"/><text x="1056.918" y="1248.582" fill="#000" font-size="12" textLength="90.229">pi-gen build.sh</text><text x="1051.565" y="1262.715" fill="#000" font-size="12" textLength="100.934">(inside container)</text><text x="1563.194" y="1241.582" fill="#000" font-size="12" textLength="91.066">pi-gen/deploy/</text><text x="1592.113" y="1255.715" fill="#000" font-size="12" textLength="33.229">(host)</text><path d="M1593.728,1268.246 C1593.728,1258.246 1611.728,1258.246 1611.728,1258.246 C1611.728,1258.246 1629.728,1258.246 1629.728,1268.246 L1629.728,1294.246 C1629.728,1304.246 1611.728,1304.246 1611.728,1304.246 C1611.728,1304.246 1593.728,1304.246 1593.728,1294.246 L1593.728,1268.246" style="stroke:#000;stroke-width:0.5;" fill="#FFF"/><path d="M1593.728,1268.246 C1593.728,1278.246 1611.728,1278.246 1611.728,1278.246 C1611.728,1278.246 1629.728,1278.246 1629.728,1268.246" style="stroke:#000;stroke-width:0.5;" fill="none"/><polygon points="166.53,145.887,176.53,149.887,166.53,153.887,170.53,149.887" fill="#000" style="stroke:#000;stroke-width:1;stroke-linejoin:miter;stroke-miterlimit:10;"/><line x1="38.934" y1="149.887" x2="172.53" y2="149.887" style="stroke:#000;stroke-width:1;"/><text x="45.934" y="145.566" fill="#000" font-size="11" textLength="93.532">./scripts/build.sh</text><line x1="178.53" y1="176.842" x2="220.53" y2="176.842" style="stroke:#000;stroke-width:1;"/><line x1="220.53" y1="176.842" x2="220.53" y2="189.842" style="stroke:#000;stroke-width:1;"/><line x1="179.53" y1="189.842" x2="220.53" y2="189.842" style="stroke:#000;stroke-width:1;"/><polygon points="189.53,185.842,179.53,189.842,189.53,193.842,185.53,189.842" fill="#000" style="stroke:#000;stroke-width:1;stroke-linejoin:miter;stroke-miterlimit:10;"/><text x="185.53" y="172.521" fill="#000" font-size="11" textLength="104.226">assets + keys (01b)</text><polygon points="357.448,212.797,367.448,216.797,357.448,220.797,361.448,216.797" fill="#000" style="stroke:#000;stroke-width:1;stroke-linejoin:miter;stroke-miterlimit:10;"/><line x1="178.53" y1="216.797" x2="363.448" y2="216.797" style="stroke:#000;stroke-width:1;"/><text x="185.53" y="212.477" fill="#000" font-size="11" textLength="166.917">run_pigen(configs/config.base)</text><polygon points="749.729,239.752,759.729,243.752,749.729,247.752,753.729,243.752" fill="#000" style="stroke:#000;stroke-width:1;stroke-linejoin:miter;stroke-miterlimit:10;"/><line x1="379.448" y1="243.752" x2="755.729" y2="243.752" style="stroke:#000;stroke-width:1;"/><text x="386.448" y="239.432" fill="#000" font-size="11" textLength="167.626">podman info / machine inspect</text><polygon points="390.448,266.707,380.448,270.707,390.448,274.707,386.448,270.707" fill="#000" style="stroke:#000;stroke-width:1;stroke-linejoin:miter;stroke-miterlimit:10;"/><line x1="384.448" y1="270.707" x2="760.729" y2="270.707" style="stroke:#000;stroke-width:1;stroke-dasharray:2,2;"/><text x="396.448" y="266.387" fill="#000" font-size="11" textLength="133.262">responsive, Rootful=true</text><polygon points="629.598,306.617,639.598,310.617,629.598,314.617,633.598,310.617" fill="#000" style="stroke:#000;stroke-width:1;stroke-linejoin:miter;stroke-miterlimit:10;"/><line x1="379.448" y1="310.617" x2="635.598" y2="310.617" style="stroke:#000;stroke-width:1;"/><text x="386.448" y="293.342" fill="#000" font-size="11" textLength="113.717">podman machine ssh</text><text x="386.448" y="306.297" fill="#000" font-size="11" textLength="182.177">losetup -D; losetup -d stale loops</text><line x1="379.448" y1="337.572" x2="421.448" y2="337.572" style="stroke:#000;stroke-width:1;"/><line x1="421.448" y1="337.572" x2="421.448" y2="350.572" style="stroke:#000;stroke-width:1;"/><line x1="380.448" y1="350.572" x2="421.448" y2="350.572" style="stroke:#000;stroke-width:1;"/><polygon points="390.448,346.572,380.448,350.572,390.448,354.572,386.448,350.572" fill="#000" style="stroke:#000;stroke-width:1;stroke-linejoin:miter;stroke-miterlimit:10;"/><text x="386.448" y="333.252" fill="#000" font-size="11" textLength="248.15">sed pi-gen/scripts/common (losetup -f | awk)</text><line x1="379.448" y1="377.527" x2="421.448" y2="377.527" style="stroke:#000;stroke-width:1;"/><line x1="421.448" y1="377.527" x2="421.448" y2="390.527" style="stroke:#000;stroke-width:1;"/><line x1="380.448" y1="390.527" x2="421.448" y2="390.527" style="stroke:#000;stroke-width:1;"/><polygon points="390.448,386.527,380.448,390.527,390.448,394.527,386.448,390.527" fill="#000" style="stroke:#000;stroke-width:1;stroke-linejoin:miter;stroke-miterlimit:10;"/><text x="386.448" y="373.207" fill="#000" font-size="11" textLength="182.837">rm pi-gen/stage2/EXPORT_IMAGE</text><polygon points="749.729,413.482,759.729,417.482,749.729,421.482,753.729,417.482" fill="#000" style="stroke:#000;stroke-width:1;stroke-linejoin:miter;stroke-miterlimit:10;"/><line x1="379.448" y1="417.482" x2="755.729" y2="417.482" style="stroke:#000;stroke-width:1;"/><text x="386.448" y="413.162" fill="#000" font-size="11" textLength="173.54">podman build -t pi-gen pi-gen/</text><polygon points="390.448,440.438,380.448,444.438,390.448,448.438,386.448,444.438" fill="#000" style="stroke:#000;stroke-width:1;stroke-linejoin:miter;stroke-miterlimit:10;"/><line x1="384.448" y1="444.438" x2="760.729" y2="444.438" style="stroke:#000;stroke-width:1;stroke-dasharray:2,2;"/><text x="396.448" y="440.117" fill="#000" font-size="11" textLength="172.708">image "pi-gen" (COPY . /pi-gen)</text><polygon points="744.729,467.393,754.729,471.393,744.729,475.393,748.729,471.393" fill="#000" style="stroke:#000;stroke-width:1;stroke-linejoin:miter;stroke-miterlimit:10;"/><line x1="379.448" y1="471.393" x2="750.729" y2="471.393" style="stroke:#000;stroke-width:1;"/><text x="386.448" y="467.072" fill="#000" font-size="11" textLength="260.987">podman run --privileged (3 ro binds, 2 env vars)</text><polygon points="866.367,494.348,876.367,498.348,866.367,502.348,870.367,498.348" fill="#000" style="stroke:#000;stroke-width:1;stroke-linejoin:miter;stroke-miterlimit:10;"/><line x1="766.729" y1="498.348" x2="872.367" y2="498.348" style="stroke:#000;stroke-width:1;"/><text x="773.729" y="494.027" fill="#000" font-size="11" textLength="24.412">start</text><line x1="888.367" y1="538.258" x2="930.367" y2="538.258" style="stroke:#000;stroke-width:1;"/><line x1="930.367" y1="538.258" x2="930.367" y2="551.258" style="stroke:#000;stroke-width:1;"/><line x1="889.367" y1="551.258" x2="930.367" y2="551.258" style="stroke:#000;stroke-width:1;"/><polygon points="899.367,547.258,889.367,551.258,899.367,555.258,895.367,551.258" fill="#000" style="stroke:#000;stroke-width:1;stroke-linejoin:miter;stroke-miterlimit:10;"/><text x="895.367" y="520.982" fill="#000" font-size="11" textLength="199.665">dpkg-reconfigure qemu-user-binfmt</text><text x="895.367" y="533.938" fill="#000" font-size="11" textLength="103.823">mount binfmt_misc</text><line x1="888.367" y1="578.213" x2="930.367" y2="578.213" style="stroke:#000;stroke-width:1;"/><line x1="930.367" y1="578.213" x2="930.367" y2="591.213" style="stroke:#000;stroke-width:1;"/><line x1="889.367" y1="591.213" x2="930.367" y2="591.213" style="stroke:#000;stroke-width:1;"/><polygon points="899.367,587.213,889.367,591.213,899.367,595.213,895.367,591.213" fill="#000" style="stroke:#000;stroke-width:1;stroke-linejoin:miter;stroke-miterlimit:10;"/><text x="895.367" y="573.893" fill="#000" font-size="11" textLength="170.054">in-container stale-loop cleanup</text><polygon points="1085.032,614.168,1095.032,618.168,1085.032,622.168,1089.032,618.168" fill="#000" style="stroke:#000;stroke-width:1;stroke-linejoin:miter;stroke-miterlimit:10;"/><line x1="888.367" y1="618.168" x2="1091.032" y2="618.168" style="stroke:#000;stroke-width:1;"/><text x="895.367" y="613.848" fill="#000" font-size="11" textLength="110.226">./build.sh -c /config</text><line x1="1107.032" y1="671.033" x2="1149.032" y2="671.033" style="stroke:#000;stroke-width:1;"/><line x1="1149.032" y1="671.033" x2="1149.032" y2="684.033" style="stroke:#000;stroke-width:1;"/><line x1="1108.032" y1="684.033" x2="1149.032" y2="684.033" style="stroke:#000;stroke-width:1;"/><polygon points="1118.032,680.033,1108.032,684.033,1118.032,688.033,1114.032,684.033" fill="#000" style="stroke:#000;stroke-width:1;stroke-linejoin:miter;stroke-miterlimit:10;"/><text x="1114.032" y="640.803" fill="#000" font-size="11" textLength="78.004">source /config</text><text x="1114.032" y="653.758" fill="#000" font-size="11" textLength="193.891">(RELEASE=trixie, IMG_NAME=ivalice,</text><text x="1114.032" y="666.713" fill="#000" font-size="11" textLength="230.85">FIRST_USER_NAME=ivalice, STAGE_LIST=...)</text><path d="M1086.032,696.033 L1158.214,696.033 L1158.214,702.166 L1148.214,712.166 L1086.032,712.166 L1086.032,696.033" style="stroke:#666;stroke-width:1.5;" fill="#EEE"/><rect x="1086.032" y="696.033" width="428.641" height="66.088" fill="none" style="stroke:#444;stroke-width:1.5;"/><text x="1101.032" y="708.635" fill="#000" font-size="12" textLength="27.182" font-weight="700">loop</text><text x="1173.214" y="709.635" fill="#000" font-size="12" textLength="325.459" font-weight="700">[stage0, stage1, stage2, /stages/stage-ivalice-base]</text><line x1="1107.032" y1="741.121" x2="1149.032" y2="741.121" style="stroke:#000;stroke-width:1;"/><line x1="1149.032" y1="741.121" x2="1149.032" y2="754.121" style="stroke:#000;stroke-width:1;"/><line x1="1108.032" y1="754.121" x2="1149.032" y2="754.121" style="stroke:#000;stroke-width:1;"/><polygon points="1118.032,750.121,1108.032,754.121,1118.032,758.121,1114.032,754.121" fill="#000" style="stroke:#000;stroke-width:1;stroke-linejoin:miter;stroke-miterlimit:10;"/><text x="1114.032" y="736.801" fill="#000" font-size="11" textLength="83.907">run_stage (01d)</text><path d="M1086.032,780.121 L1158.214,780.121 L1158.214,786.254 L1148.214,796.254 L1086.032,796.254 L1086.032,780.121" style="stroke:#666;stroke-width:1.5;" fill="#EEE"/><rect x="1086.032" y="780.121" width="468.162" height="79.043" fill="none" style="stroke:#444;stroke-width:1.5;"/><text x="1101.032" y="792.723" fill="#000" font-size="12" textLength="27.182" font-weight="700">loop</text><text x="1173.214" y="793.723" fill="#000" font-size="12" textLength="364.98" font-weight="700">[each stage with EXPORT_IMAGE (only stage-ivalice-base)]</text><line x1="1107.032" y1="838.164" x2="1149.032" y2="838.164" style="stroke:#000;stroke-width:1;"/><line x1="1149.032" y1="838.164" x2="1149.032" y2="851.164" style="stroke:#000;stroke-width:1;"/><line x1="1108.032" y1="851.164" x2="1149.032" y2="851.164" style="stroke:#000;stroke-width:1;"/><polygon points="1118.032,847.164,1108.032,851.164,1118.032,855.164,1114.032,851.164" fill="#000" style="stroke:#000;stroke-width:1;stroke-linejoin:miter;stroke-miterlimit:10;"/><text x="1114.032" y="820.889" fill="#000" font-size="11" textLength="129.964">run_stage export-image</text><text x="1114.032" y="833.844" fill="#000" font-size="11" textLength="165.29">(partition, copy rootfs, finalise)</text><polygon points="899.367,888.119,889.367,892.119,899.367,896.119,895.367,892.119" fill="#000" style="stroke:#000;stroke-width:1;stroke-linejoin:miter;stroke-miterlimit:10;"/><line x1="893.367" y1="892.119" x2="1096.032" y2="892.119" style="stroke:#000;stroke-width:1;stroke-dasharray:2,2;"/><text x="905.367" y="887.799" fill="#000" font-size="11" textLength="145.379">deploy/&lt;date>-ivalice.img</text><line x1="888.367" y1="919.074" x2="930.367" y2="919.074" style="stroke:#000;stroke-width:1;"/><line x1="930.367" y1="919.074" x2="930.367" y2="932.074" style="stroke:#000;stroke-width:1;"/><line x1="889.367" y1="932.074" x2="930.367" y2="932.074" style="stroke:#000;stroke-width:1;"/><polygon points="899.367,928.074,889.367,932.074,899.367,936.074,895.367,932.074" fill="#000" style="stroke:#000;stroke-width:1;stroke-linejoin:miter;stroke-miterlimit:10;"/><text x="895.367" y="914.754" fill="#000" font-size="11" textLength="167.014">rsync work/*/build.log deploy/</text><polygon points="777.729,955.029,767.729,959.029,777.729,963.029,773.729,959.029" fill="#000" style="stroke:#000;stroke-width:1;stroke-linejoin:miter;stroke-miterlimit:10;"/><line x1="771.729" y1="959.029" x2="877.367" y2="959.029" style="stroke:#000;stroke-width:1;stroke-dasharray:2,2;"/><text x="783.729" y="954.709" fill="#000" font-size="11" textLength="30.604">exit 0</text><polygon points="749.729,981.984,759.729,985.984,749.729,989.984,753.729,985.984" fill="#000" style="stroke:#000;stroke-width:1;stroke-linejoin:miter;stroke-miterlimit:10;"/><line x1="379.448" y1="985.984" x2="755.729" y2="985.984" style="stroke:#000;stroke-width:1;"/><text x="386.448" y="981.664" fill="#000" font-size="11" textLength="308.038">podman cp pigen_work:/pi-gen/deploy/. pi-gen/deploy/</text><polygon points="1599.728,1008.939,1609.728,1012.939,1599.728,1016.939,1603.728,1012.939" fill="#000" style="stroke:#000;stroke-width:1;stroke-linejoin:miter;stroke-miterlimit:10;"/><line x1="761.729" y1="1012.939" x2="1605.728" y2="1012.939" style="stroke:#000;stroke-width:1;"/><text x="768.729" y="1008.619" fill="#000" font-size="11" textLength="83.359">*.img, build.log</text><polygon points="749.729,1035.895,759.729,1039.895,749.729,1043.895,753.729,1039.895" fill="#000" style="stroke:#000;stroke-width:1;stroke-linejoin:miter;stroke-miterlimit:10;"/><line x1="379.448" y1="1039.895" x2="755.729" y2="1039.895" style="stroke:#000;stroke-width:1;"/><text x="386.448" y="1035.574" fill="#000" font-size="11" textLength="253.032">podman logs > pi-gen/logs/build-podman.log</text><path d="M22.934,1051.895 L83.754,1051.895 L83.754,1058.027 L73.754,1068.027 L22.934,1068.027 L22.934,1051.895" style="stroke:#666;stroke-width:1.5;" fill="#EEE"/><rect x="22.934" y="1051.895" width="754.796" height="127.131" fill="none" style="stroke:#444;stroke-width:1.5;"/><text x="37.934" y="1064.496" fill="#000" font-size="12" textLength="15.82" font-weight="700">alt</text><text x="98.754" y="1065.496" fill="#000" font-size="12" textLength="91.863" font-weight="700">[*.img present]</text><polygon points="749.729,1092.982,759.729,1096.982,749.729,1100.982,753.729,1096.982" fill="#000" style="stroke:#000;stroke-width:1;stroke-linejoin:miter;stroke-miterlimit:10;"/><line x1="379.448" y1="1096.982" x2="755.729" y2="1096.982" style="stroke:#000;stroke-width:1;"/><text x="386.448" y="1092.662" fill="#000" font-size="11" textLength="326.149">podman rm -v pigen_work (unless PRESERVE_CONTAINER=1)</text><polygon points="189.53,1119.938,179.53,1123.938,189.53,1127.938,185.53,1123.938" fill="#000" style="stroke:#000;stroke-width:1;stroke-linejoin:miter;stroke-miterlimit:10;"/><line x1="183.53" y1="1123.938" x2="368.448" y2="1123.938" style="stroke:#000;stroke-width:1;stroke-dasharray:2,2;"/><text x="195.53" y="1119.617" fill="#000" font-size="11" textLength="26.635">done</text><line x1="22.934" y1="1132.938" x2="777.729" y2="1132.938" style="stroke:#444;stroke-width:1;stroke-dasharray:2,2;"/><text x="27.934" y="1146.539" fill="#000" font-size="12" textLength="65.936" font-weight="700">[no image]</text><polygon points="49.934,1167.025,39.934,1171.025,49.934,1175.025,45.934,1171.025" fill="#000" style="stroke:#000;stroke-width:1;stroke-linejoin:miter;stroke-miterlimit:10;"/><line x1="43.934" y1="1171.025" x2="368.448" y2="1171.025" style="stroke:#000;stroke-width:1;stroke-dasharray:2,2;"/><text x="55.934" y="1166.705" fill="#000" font-size="11" textLength="72.939">ERROR, exit 1</text><polygon points="49.934,1207.98,39.934,1211.98,49.934,1215.98,45.934,1211.98" fill="#000" style="stroke:#000;stroke-width:1;stroke-linejoin:miter;stroke-miterlimit:10;"/><line x1="43.934" y1="1211.98" x2="177.53" y2="1211.98" style="stroke:#000;stroke-width:1;stroke-dasharray:2,2;"/><text x="55.934" y="1207.66" fill="#000" font-size="11" textLength="115.597">ls -lh pi-gen/deploy/</text><?plantuml-src TLLHJ_Cs57tFhxZZgVrM9y3Us422afLAb4PfXpO9gJA9MomSsukTGgNf--sxZkEGVjsUKdFlERxttEFBJrmMeYaPn76oCVOWMCoRIaIMMy4WusJ69F2AxhZSNK7To8tcEoP7OwYOCNJ7O2lK1z2YLiR0cp9s0iyBeBA4GabBkMHr5D72gXgMcjKKVqIQrfONN5DfuUoruQACpTiPK0Dtnp5_6T6ghAZ4d1SvgA05F1m3V2PKj7Z3cx6I5pd2mt85Ieg3Xpml_XCpVPotuUmusdS1xRMR3rM_8scYES6ZPvp-GDY683I6sLmQZXhtN1wMpQAIMlfA3GkWf6HQg4E26AUbpxkFeY0Ta1kuWok84rFKN5kJX5kYkn2ZnZ1hu6TuPmS3e_EBrx4FFi1mWbZCbkzCuh-ngsBi1iNtr3BKzS51CeHq-d2vLP3qqc9BcXKsoe04QcQqmaRtR0AvKdRRY6jRDympeIbwgi1Xd3X2ORcD1dB_A_I_Ip2MeW65Kjfu0dU5OILqGeN-2rLLIiAeXsxX7w0Vx-ClL5tr88kElKpIFxDbljxC5xUpzAJFLb0WjiC4wA1HznpwYPt1QBhC_e8OWYLE655p-4w8hlcU2xR37aQ_GAtWbSlIJE0IcDp3djPce7_cxhk1gMlQehc-8jDe6YAbVj-Hcla9DZM3lrdLaCQmcY3tjh8lib8DMjAVDXKtnHUQI_9bxbPkukI6GZ0g6-qJirdhjk0o80LqZXdKEeimBIGRrTG52rbev3nzJ6zNANg1VtBqndmnsppTBj9hH0jUiCcB_7sUhzQRFrPfVXo1rHf7j7cShzRNSHoFexR0Tehd4_-zwBwN4_3ZDVv3EWxYZ1q132fqRw3DSO-Z74TCbfwOeIyz6tnm-mP3dy38RH0uvHx_7pdxrAgsf7KBoj2k2CkLdE0Uq0Sq03uH7F-MIoHpFAuEnnIcwrV1RxWZs4suCkRLBYhPKFj-eBKvo0BSWag-THCJQXTuN5xdI_R9BPmFQQP7d2SEBlHW-rqbnxigXkEpT-uzehz_S-LEeA_bX1Z_Pk0c4BYJBpoiV8UXmdPCe777C6bHyPCtLW7P3ug4KIC5_eU2B4_HLi_fPhfyMj_EdzBy-cBi2RfzMIh98YPm2KlbttOVxjVk5QHvlimdNhgBTbG3nHxSWZtE5mQ8UFj1cdy1?></g></svg>