<svg xmlns="http://www.w3.org/2000/svg" xmlns:xlink="http://www.w3.org/1999/xlink" version="1.1" data-diagram-type="STATE" style="width:1083px;height:1439px;background:#FFFFFF;" width="1083px" height="1439px" viewBox="0 0 1083 1439" zoomAndPan="magnify" preserveAspectRatio="none" contentStyleType="text/css"><?plantuml 1.2026.8?><defs/><g font-family="sans-serif" lengthAdjust="spacing"><g class="title" data-source-line="2"><text x="238.876" y="24.502" fill="#000" font-size="15" textLength="598.623" font-weight="700">Pi-Gen imaging: lifecycle of one cluster node, from image to verified member</text></g><g class="entity" data-qualified-name="Built" id="ent0001" data-source-line="5"><rect x="604.01" y="138.666" width="129.992" height="50" fill="#FAFAFA" style="stroke:#000;stroke-width:0.5;" rx="12.5" ry="12.5"/><line x1="604.01" y1="176.932" x2="734.002" y2="176.932" style="stroke:#000;stroke-width:0.5;"/><text x="614.01" y="155.268" fill="#000" font-size="12" textLength="65.678">Image built</text><text x="614.01" y="169.4" fill="#000" font-size="12" textLength="109.992">(generic, role-less)</text></g><g class="entity" data-qualified-name="Flashed" id="ent0002" data-source-line="7"><rect x="595.17" y="262.666" width="147.67" height="50" fill="#FAFAFA" style="stroke:#000;stroke-width:0.5;" rx="12.5" ry="12.5"/><line x1="595.17" y1="300.932" x2="742.84" y2="300.932" style="stroke:#000;stroke-width:0.5;"/><text x="605.17" y="279.268" fill="#000" font-size="12" textLength="44.332">Flashed</text><text x="605.17" y="293.4" fill="#000" font-size="12" textLength="127.67">(no ivalice-node.conf)</text></g><g class="entity" data-qualified-name="Personalized" id="ent0003" data-source-line="9"><rect x="449.83" y="399.926" width="186.348" height="50" fill="#FAFAFA" style="stroke:#000;stroke-width:0.5;" rx="12.5" ry="12.5"/><line x1="449.83" y1="438.192" x2="636.178" y2="438.192" style="stroke:#000;stroke-width:0.5;"/><text x="459.83" y="416.528" fill="#000" font-size="12" textLength="73.846">Personalized</text><text x="459.83" y="430.66" fill="#000" font-size="12" textLength="166.348">bootfs has ivalice-node.conf</text></g><g class="entity" data-qualified-name="Halted" id="ent0004" data-source-line="11"><rect x="670.79" y="386.666" width="248.434" height="76.531" fill="#FAFAFA" style="stroke:#000;stroke-width:0.5;" rx="12.5" ry="12.5"/><line x1="670.79" y1="453.197" x2="919.224" y2="453.197" style="stroke:#000;stroke-width:0.5;"/><text x="680.79" y="403.268" fill="#000" font-size="12" textLength="101.941">Firstboot skipped</text><text x="680.79" y="417.4" fill="#000" font-size="12" textLength="151.758">(ConditionPathExists fails,</text><text x="680.79" y="431.533" fill="#000" font-size="12" textLength="221.186">eth0 unconfigured: only the .template</text><text x="680.79" y="445.666" fill="#000" font-size="12" textLength="228.434">exists and NetworkManager is masked)</text></g><g class="entity" data-qualified-name="FirstBooted" id="ent0005" data-source-line="14"><path d="M416.14,550.196 L669.861,550.196 A12.5,12.5 0 0 1 682.361,562.696 L682.361,574.329 L403.64,574.329 L403.64,562.696 A12.5,12.5 0 0 1 416.14,550.196" fill="#FAFAFA"/><path d="M403.64,574.329 L682.361,574.329 L682.361,821.229 A12.5,12.5 0 0 1 669.861,833.729 L416.14,833.729 A12.5,12.5 0 0 1 403.64,821.229 L403.64,574.329" fill="#FAFAFA"/><rect x="403.64" y="550.196" width="278.721" height="283.533" fill="none" style="stroke:#000;stroke-width:0.5;" rx="12.5" ry="12.5"/><line x1="403.64" y1="574.329" x2="682.361" y2="574.329" style="stroke:#000;stroke-width:0.5;"/><text x="506.309" y="566.798" fill="#000" font-size="12" textLength="73.383">First-booted</text><g class="entity" data-qualified-name="FirstBooted.fb1" id="ent0006" data-source-line="15"><rect x="456.59" y="586.329" width="160.83" height="50" fill="#FAFAFA" style="stroke:#000;stroke-width:0.5;" rx="12.5" ry="12.5"/><line x1="456.59" y1="610.462" x2="617.42" y2="610.462" style="stroke:#000;stroke-width:0.5;"/><text x="466.59" y="602.93" fill="#000" font-size="12" textLength="140.83">hostname + static IP set</text></g><g class="entity" data-qualified-name="FirstBooted.fb2" id="ent0007" data-source-line="16"><rect x="422.06" y="672.329" width="229.871" height="62.398" fill="#FAFAFA" style="stroke:#000;stroke-width:0.5;" rx="12.5" ry="12.5"/><line x1="422.06" y1="724.727" x2="651.931" y2="724.727" style="stroke:#000;stroke-width:0.5;"/><text x="432.06" y="688.93" fill="#000" font-size="12" textLength="105.018">role units enabled</text><text x="432.06" y="703.063" fill="#000" font-size="12" textLength="202.828">(head: slurmctld, postboot-ansible</text><text x="432.06" y="717.196" fill="#000" font-size="12" textLength="209.871">worker: slurmd, cluster key deleted)</text></g><g class="entity" data-qualified-name="FirstBooted.fb3" id="ent0008" data-source-line="17"><rect x="415.64" y="770.729" width="242.721" height="50" fill="#FAFAFA" style="stroke:#000;stroke-width:0.5;" rx="12.5" ry="12.5"/><line x1="415.64" y1="808.994" x2="658.361" y2="808.994" style="stroke:#000;stroke-width:0.5;"/><text x="425.64" y="787.33" fill="#000" font-size="12" textLength="221.666">marker /var/lib/ivalice/firstboot.done</text><text x="425.64" y="801.463" fill="#000" font-size="12" textLength="222.721">role.head | role.worker [, k3s.enabled]</text></g><!--link fb1 to fb2--><g class="link" data-entity-1="ent0006" data-entity-2="ent0007" id="lnk20" data-source-line="18" data-link-type="dependency"><path d="M537,636.499 C537,647.459 537,655.539 537,667.149" style="stroke:#000;stroke-width:1;" fill="none" id="fb1-to-fb2"/><polygon points="537,672.149,541,663.149,537,667.149,533,663.149,537,672.149" fill="#000" style="stroke:#000;stroke-width:1;stroke-linejoin:miter;stroke-miterlimit:10;"/></g><!--link fb2 to fb3--><g class="link" data-entity-1="ent0007" data-entity-2="ent0008" id="lnk21" data-source-line="19" data-link-type="dependency"><path d="M537,735.069 C537,746.619 537,754.599 537,765.489" style="stroke:#000;stroke-width:1;" fill="none" id="fb2-to-fb3"/><polygon points="537,770.489,541,761.489,537,765.489,533,761.489,537,770.489" fill="#000" style="stroke:#000;stroke-width:1;stroke-linejoin:miter;stroke-miterlimit:10;"/></g></g><g class="entity" data-qualified-name="Running" id="ent0009" data-source-line="22"><rect x="403.78" y="920.726" width="278.439" height="62.398" fill="#FAFAFA" style="stroke:#000;stroke-width:0.5;" rx="12.5" ry="12.5"/><line x1="403.78" y1="973.124" x2="682.219" y2="973.124" style="stroke:#000;stroke-width:0.5;"/><text x="413.78" y="937.328" fill="#000" font-size="12" textLength="124.699">Running role services</text><text x="413.78" y="951.46" fill="#000" font-size="12" textLength="258.439">munge + slurmctld (head) / slurmd (worker)</text><text x="413.78" y="965.593" fill="#000" font-size="12" textLength="146.59">optional k3s / k3s-agent</text></g><g class="entity" data-qualified-name="Converging" id="ent0010" data-source-line="24"><rect x="431.16" y="1070.126" width="223.695" height="50" fill="#FAFAFA" style="stroke:#000;stroke-width:0.5;" rx="12.5" ry="12.5"/><line x1="431.16" y1="1108.392" x2="654.855" y2="1108.392" style="stroke:#000;stroke-width:0.5;"/><text x="441.16" y="1086.728" fill="#000" font-size="12" textLength="66.809">Converging</text><text x="441.16" y="1100.86" fill="#000" font-size="12" textLength="203.695">site.yml 10 -> 20 -> 30 -> 40/50</text></g><g class="entity" data-qualified-name="Verified" id="ent0011" data-source-line="26"><rect x="7" y="1207.126" width="198.008" height="62.398" fill="#FAFAFA" style="stroke:#000;stroke-width:0.5;" rx="12.5" ry="12.5"/><line x1="7" y1="1259.524" x2="205.008" y2="1259.524" style="stroke:#000;stroke-width:0.5;"/><text x="17" y="1223.728" fill="#000" font-size="12" textLength="122.654">Verified + converged</text><text x="17" y="1237.86" fill="#000" font-size="12" textLength="178.008">ansible-postboot.done written</text><text x="17" y="1251.993" fill="#000" font-size="12" textLength="98.227">by the verify role</text></g><g class="entity" data-qualified-name="Retrying" id="ent0012" data-source-line="28"><rect x="568.88" y="1213.326" width="200.258" height="50" fill="#FAFAFA" style="stroke:#000;stroke-width:0.5;" rx="12.5" ry="12.5"/><line x1="568.88" y1="1251.592" x2="769.138" y2="1251.592" style="stroke:#000;stroke-width:0.5;"/><text x="578.88" y="1229.928" fill="#000" font-size="12" textLength="48.34">Retrying</text><text x="578.88" y="1244.06" fill="#000" font-size="12" textLength="180.258">Restart=on-failure every 120 s</text></g><g class="entity" data-qualified-name="Failed" id="ent0013" data-source-line="31"><rect x="337.08" y="1358.856" width="293.838" height="50" fill="#FAFAFA" style="stroke:#000;stroke-width:0.5;" rx="12.5" ry="12.5"/><line x1="337.08" y1="1397.122" x2="630.918" y2="1397.122" style="stroke:#000;stroke-width:0.5;"/><text x="347.08" y="1375.458" fill="#000" font-size="12" textLength="34.236">Failed</text><text x="347.08" y="1389.59" fill="#000" font-size="12" textLength="273.838">manual: journalctl, /var/log/ivalice/ansible.log</text></g><g class="start_entity" data-qualified-name=".start." id="ent0014" data-source-line="4"><ellipse cx="669" cy="54.666" rx="10" ry="10" fill="#222" style="stroke:#222;stroke-width:1;"/></g><g class="end_entity" data-qualified-name=".end." id="ent0028" data-source-line="32"><ellipse cx="106" cy="1383.856" rx="11" ry="11" fill="none" style="stroke:#222;stroke-width:1;"/><ellipse cx="106" cy="1383.856" rx="6" ry="6" fill="#222" style="stroke:#222;stroke-width:1;"/></g><g class="entity" data-qualified-name="GMN30" id="ent0031" data-source-line="35"><path d="M240.25,1212.126 L240.25,1234.326 L205.34,1238.326 L240.25,1242.326 L240.25,1264.524 A0,0 0 0 0 240.25,1264.524 L533.758,1264.524 A0,0 0 0 0 533.758,1264.524 L533.758,1222.126 L523.758,1212.126 L240.25,1212.126 A0,0 0 0 0 240.25,1212.126" style="stroke:#555;stroke-width:0.5;" fill="#FFFFF0"/><path d="M523.758,1212.126 L523.758,1222.126 L533.758,1222.126 L523.758,1212.126" style="stroke:#555;stroke-width:0.5;" fill="#FFFFF0"/><text x="246.25" y="1228.728" fill="#000" font-size="12" textLength="272.508">Re-personalizing a booted node does nothing:</text><text x="246.25" y="1242.86" fill="#000" font-size="12" textLength="253.582">firstboot.done blocks a second run. Reflash</text><text x="246.25" y="1256.993" fill="#000" font-size="12" textLength="231.961">or delete the marker to change identity.</text></g><g class="entity" data-qualified-name="GMN33" id="ent0034" data-source-line="40"><path d="M665.63,1343.526 L665.63,1424.19 L1068.374,1424.19 L1068.374,1353.526 L1058.374,1343.526 L665.63,1343.526" style="stroke:#555;stroke-width:0.5;" fill="#FFE4E1"/><path d="M1058.374,1343.526 L1058.374,1353.526 L1068.374,1353.526 L1058.374,1343.526" style="stroke:#555;stroke-width:1;" fill="#FFE4E1"/><text x="671.63" y="1360.128" fill="#000" font-size="12" textLength="375.592">FINDING (likely): the unit puts StartLimitIntervalSec= in [Service].</text><text x="671.63" y="1374.26" fill="#000" font-size="12" textLength="366.357">systemd only accepts that key in [Unit] (the [Service] spelling is</text><text x="671.63" y="1388.393" fill="#000" font-size="12" textLength="381.744">StartLimitInterval=), so it is ignored, the 10 s default applies, and</text><text x="671.63" y="1402.526" fill="#000" font-size="12" textLength="373.852">with RestartSec=120 the burst of 5 is never reached: the service</text><text x="671.63" y="1416.659" fill="#000" font-size="12" textLength="367.5">retries every 2 min indefinitely. Check: systemd-analyze verify.</text></g><!--link *start* to Built--><g class="link" data-entity-1="ent0014" data-entity-2="ent0001" id="lnk15" data-source-line="4" data-link-type="dependency"><path d="M669,65.156 C669,81.426 669,110.096 669,133.276" style="stroke:#000;stroke-width:1;" fill="none" id="*start*-to-Built"/><polygon points="669,138.276,673,129.276,669,133.276,665,129.276,669,138.276" fill="#000" style="stroke:#000;stroke-width:1;stroke-linejoin:miter;stroke-miterlimit:10;"/><text x="670" y="106.301" fill="#000" font-size="11" textLength="84.283">scripts/build.sh</text></g><!--link Built to Flashed--><g class="link" data-entity-1="ent0001" data-entity-2="ent0002" id="lnk16" data-source-line="6" data-link-type="dependency"><path d="M669,189.056 C669,210.336 669,236.046 669,257.306" style="stroke:#000;stroke-width:1;" fill="none" id="Built-to-Flashed"/><polygon points="669,262.306,673,253.306,669,257.306,665,253.306,669,262.306" fill="#000" style="stroke:#000;stroke-width:1;stroke-linejoin:miter;stroke-miterlimit:10;"/><text x="670" y="230.301" fill="#000" font-size="11" textLength="85.664">write .img to SD</text></g><!--link Flashed to Personalized--><g class="link" data-entity-1="ent0002" data-entity-2="ent0003" id="lnk17" data-source-line="8" data-link-type="dependency"><path d="M646.19,313.156 C623.35,337.676 591.838,371.508 569.058,395.958" style="stroke:#000;stroke-width:1;" fill="none" id="Flashed-to-Personalized"/><polygon points="565.65,399.616,574.712,395.758,569.058,395.958,568.858,390.304,565.65,399.616" fill="#000" style="stroke:#000;stroke-width:1;stroke-linejoin:miter;stroke-miterlimit:10;"/><text x="618.29" y="354.301" fill="#000" font-size="11" textLength="110.526">personalize-node.sh</text></g><!--link Flashed to Halted--><g class="link" data-entity-1="ent0002" data-entity-2="ent0004" id="lnk18" data-source-line="10" data-link-type="dependency"><path d="M703.46,313.006 C714.73,321.736 726.93,332.056 737,342.666 C749.54,355.856 758.727,367.769 768.537,382.109" style="stroke:#000;stroke-width:1;" fill="none" id="Flashed-to-Halted"/><polygon points="771.36,386.236,769.58,376.549,768.537,382.109,762.977,381.066,771.36,386.236" fill="#000" style="stroke:#000;stroke-width:1;stroke-linejoin:miter;stroke-miterlimit:10;"/><text x="748.83" y="354.301" fill="#000" font-size="11" textLength="95.068">boot without conf</text></g><!--link Personalized to FirstBooted--><g class="link" data-entity-1="ent0003" data-entity-2="ent0005" id="lnk19" data-source-line="13" data-link-type="dependency"><path d="M543,450.386 C543,473.896 543,506.466 543,544.976" style="stroke:#000;stroke-width:1;" fill="none" id="Personalized-to-FirstBooted"/><polygon points="543,549.976,547,540.976,543,544.976,539,540.976,543,549.976" fill="#000" style="stroke:#000;stroke-width:1;stroke-linejoin:miter;stroke-miterlimit:10;"/><text x="580.228" y="504.831" fill="#000" font-size="11" textLength="53.33">power on,</text><text x="544" y="517.786" fill="#000" font-size="11" textLength="125.786">ivalice-firstboot.service</text></g><!--link FirstBooted to Running--><g class="link" data-entity-1="ent0005" data-entity-2="ent0009" id="lnk22" data-source-line="21" data-link-type="dependency"><path d="M543,834.016 C543,866.716 543,893.376 543,915.476" style="stroke:#000;stroke-width:1;" fill="none" id="FirstBooted-to-Running"/><polygon points="543,920.476,547,911.476,543,915.476,539,911.476,543,920.476" fill="#000" style="stroke:#000;stroke-width:1;stroke-linejoin:miter;stroke-miterlimit:10;"/><text x="618.073" y="875.361" fill="#000" font-size="11" textLength="70.372">services start</text><text x="544" y="888.316" fill="#000" font-size="11" textLength="218.518">(see 01i note on same-boot enablement)</text></g><!--link Running to Converging--><g class="link" data-entity-1="ent0009" data-entity-2="ent0010" id="lnk23" data-source-line="23" data-link-type="dependency"><path d="M543,983.566 C543,1009.356 543,1040.756 543,1064.646" style="stroke:#000;stroke-width:1;" fill="none" id="Running-to-Converging"/><polygon points="543,1069.646,547,1060.646,543,1064.646,539,1060.646,543,1069.646" fill="#000" style="stroke:#000;stroke-width:1;stroke-linejoin:miter;stroke-miterlimit:10;"/><text x="596.07" y="1024.761" fill="#000" font-size="11" textLength="55.424">head only:</text><text x="544" y="1037.716" fill="#000" font-size="11" textLength="159.564">ivalice-postboot-ansible (01j)</text></g><!--link Converging to Verified--><g class="link" data-entity-1="ent0010" data-entity-2="ent0011" id="lnk24" data-source-line="25" data-link-type="dependency"><path d="M467.38,1120.556 C393.49,1144.436 285.518,1179.319 205.648,1205.129" style="stroke:#000;stroke-width:1;" fill="none" id="Converging-to-Verified"/><polygon points="200.89,1206.666,210.684,1207.705,205.648,1205.129,208.224,1200.092,200.89,1206.666" fill="#000" style="stroke:#000;stroke-width:1;stroke-linejoin:miter;stroke-miterlimit:10;"/><text x="364.65" y="1161.761" fill="#000" font-size="11" textLength="119.754">90-verify: sinfo 5 idle,</text><text x="372.14" y="1174.716" fill="#000" font-size="11" textLength="104.774">srun -N5 hostname</text></g><!--link Converging to Retrying--><g class="link" data-entity-1="ent0010" data-entity-2="ent0012" id="lnk25" data-source-line="27" data-link-type="dependency"><path d="M535.28,1120.346 C531.34,1137.516 529.35,1160.386 540,1177.126 C549.89,1192.656 560.525,1201.919 576.915,1210.539" style="stroke:#000;stroke-width:1;" fill="none" id="Converging-to-Retrying"/><polygon points="581.34,1212.866,575.236,1205.136,576.915,1210.539,571.513,1212.217,581.34,1212.866" fill="#000" style="stroke:#000;stroke-width:1;stroke-linejoin:miter;stroke-miterlimit:10;"/><text x="541" y="1161.761" fill="#000" font-size="11" textLength="101.712">quorum timeout or</text><text x="548.753" y="1174.716" fill="#000" font-size="11" textLength="86.206">playbook failure</text></g><!--link Retrying to Converging--><g class="link" data-entity-1="ent0012" data-entity-2="ent0010" id="lnk26" data-source-line="29" data-link-type="dependency"><path d="M668.18,1213.146 C666.39,1194.196 661.25,1168.116 647,1150.126 C637.35,1137.916 628.537,1130.621 614.817,1122.971" style="stroke:#000;stroke-width:1;" fill="none" id="Retrying-to-Converging"/><polygon points="610.45,1120.536,616.363,1128.413,614.817,1122.971,620.259,1121.425,610.45,1120.536" fill="#000" style="stroke:#000;stroke-width:1;stroke-linejoin:miter;stroke-miterlimit:10;"/></g><!--link Retrying to Failed--><g class="link" data-entity-1="ent0012" data-entity-2="ent0013" id="lnk27" data-source-line="30" data-link-type="dependency"><path d="M637.62,1263.666 C603.6,1290.066 553.571,1328.881 519.491,1355.321" style="stroke:#000;stroke-width:1;" fill="none" id="Retrying-to-Failed"/><polygon points="515.54,1358.386,525.103,1356.03,519.491,1355.321,520.199,1349.709,515.54,1358.386" fill="#000" style="stroke:#000;stroke-width:1;stroke-linejoin:miter;stroke-miterlimit:10;"/><text x="588.58" y="1311.161" fill="#000" font-size="11" textLength="165.478">start limit hit (if it ever applies)</text></g><!--link Verified to *end*--><g class="link" data-entity-1="ent0011" data-entity-2="ent0028" id="lnk29" data-source-line="32" data-link-type="dependency"><path d="M106,1269.766 C106,1302.016 106,1346.176 106,1367.446" style="stroke:#000;stroke-width:1;" fill="none" id="Verified-to-*end*"/><polygon points="106,1372.446,110,1363.446,106,1367.446,102,1363.446,106,1372.446" fill="#000" style="stroke:#000;stroke-width:1;stroke-linejoin:miter;stroke-miterlimit:10;"/></g><!--link Retrying to GMN33--><g class="link" data-entity-1="ent0012" data-entity-2="ent0034" id="lnk35" data-source-line="40" data-link-type="association"><path d="M708.95,1263.596 C725.9,1274.226 745.69,1287.096 763,1299.526 C781.99,1313.146 802.18,1328.996 819.67,1343.186" style="stroke:#000;stroke-width:1;stroke-dasharray:7,7;" fill="none" id="Retrying-GMN33"/></g><?plantuml-src PLLDSzis4BtpLspJYzI8b6p7Xsh6FIInKy-a7eyzxSNoT41oAI820HK0xJ9j_tjt0P2IaeFf4RdxzktRhn-ahbHV8nJ5ya_d1uM5x3kLUUaLmhtCFw46sOcjrDirADbWDLJqnJHWD0BvEeyMjAbn0OqrNJ16y0PUqCf6OWqTTYNQB7lwwHdo_1TutqlbOGskidBltRAattNXsinvuH7Ut0O4VkitUhP5JK3L0gnHc2jqRlu6X8ieMSHYr1ibN4lHrl1g9S4KijioZSUF8swo84njGBu89IlCcNbH6Tr4r6IJZMYCV8_M6KtcNmFy_l0pUX-O7rjkT6cCRnoq1FjTj13isFmaugz2-H2B8U1L-jRq7jXloaLQvyDNjvFxVSZgWz6rzDBeU-7Rwx-bymuQ8PLRR3JwTWMzPWYvxItMQwgV6i2tf9J7Rgy8bioYbz0rtA5_DNRtcz1K3GlIGIVS3kkeKsIOPIVQX38miVT4B6fbNidNQ68mIj2Cp0k7zeNUdAIKby4rrk88wfyC8DcrndajEeItuOsiuFOU7FhWqvHd1qlk64fQKaQeHQc2IYqAIjwftdQLL_M2E4O-kT1Eaj56Szvean5PZ5s-mm5gLEX75Pho_12j4-m5onTXbqgMovJmyf1mJIEpqSogO1RmR-Zf8eQ3fmNiBboHc3wd01SKW98AsiPmz4o_BhB_icEH-Er3hpNDAezNbDSnFykJv11XTIPfM8ckqU18nA1tKgT3xUTZDKQSeE48jT5ThxT1-L4_28BEOPdKWbbCPxxHPi_DA1IdHT_fcLChwLYeX9-DSPWxDJ0jZMsa7nJY7bqVUkVRKi5iTVPbednmtz1dZyNGAJXR0I6VX-T5UBvRBIzNWSF18JiApKp-67VN6dvUvM6J3QIer8s1Iv2rGkfePtiD-TqbZ1qv4fcyt_BCCYvtNk8y9H7Q8ImhZvgsHHp662l87ZYEMDyoV41lXwZKNxsnVGTUTiXhmjYDfd4UACOkp3-D-rJLvBNH3nZQuiheFDa04lu0PwILYoLAnjaKwxH8f-zl22K85d3fL7JIGqj_Cza0_MDq4FkzakYcaaKdQYkXUw7MyCNqbZg66ckH1ibifq5A0XRqBkw7u9nDQZCBkZ5P5XhSocth-KvD2W9bb1-sDnCN4FTDE61G6veMScxvsF6adKmkbCfKErgED0vKrXge_0L1DhouoThOj1n27TCse0DKjO9dHjRK-j8FHOQw3ZCOUPR6UpgRH7IIyyURc-jtrxp8RcxlFjxUVOAPaZjKmtmTi7cbmRwdjVR8MdzcgMyrRIWIwX6hAv0QdXxZp3uNlA46sbzT72SGLOLqTWb9-B3IsFftWdo66QDFdk3sg1GJaev0lezrDL-0CrnSkWvogmtTbKLWI5FdI8r6z7ITKz4NV5O8XyyPfFPZjjnmx5Fsf3RhSCbmElIBHL6rVApOOBmNGA-z9SJKiUVGKGfIKpn9QP1E1NneiTgjnyHfNmWrV1sdwr22_m40?></g></svg>